<svg id="svg" version="1.1" xmlns="http://www.w3.org/2000/svg" xmlns:xlink="http://www.w3.org/1999/xlink" width="400" height="600" viewBox="0, 0, 400,600"><g id="svgg"><path id="path0" d="M38.891 0.301 C 37.951 0.381,37.286 0.616,37.414 0.823 C 37.542 1.031,37.097 1.222,36.424 1.250 C 35.062 1.306,34.888 1.342,33.931 1.765 C 33.563 1.928,32.984 2.103,32.643 2.153 C 32.302 2.203,31.898 2.369,31.745 2.522 C 31.592 2.675,31.137 2.800,30.733 2.800 C 30.330 2.800,29.999 2.935,29.997 3.100 C 29.993 3.459,28.056 4.400,27.320 4.400 C 27.034 4.400,26.800 4.580,26.800 4.800 C 26.800 5.020,26.522 5.200,26.183 5.200 C 25.844 5.200,25.180 5.560,24.708 6.000 C 24.236 6.440,23.561 6.800,23.209 6.800 C 22.856 6.800,21.772 7.520,20.800 8.400 C 19.828 9.280,18.872 10.000,18.676 10.000 C 18.481 10.000,17.817 10.540,17.200 11.200 C 16.583 11.860,15.918 12.400,15.721 12.400 C 15.279 12.400,12.400 15.310,12.400 15.756 C 12.400 15.934,11.860 16.583,11.200 17.200 C 10.540 17.817,10.000 18.481,10.000 18.676 C 10.000 18.872,9.280 19.828,8.400 20.800 C 7.520 21.772,6.800 22.856,6.800 23.209 C 6.800 23.561,6.440 24.236,6.000 24.708 C 5.560 25.180,5.200 25.844,5.200 26.183 C 5.200 26.522,5.020 26.800,4.800 26.800 C 4.580 26.800,4.400 27.034,4.400 27.320 C 4.400 28.056,3.459 29.993,3.100 29.997 C 2.935 29.999,2.800 30.330,2.800 30.733 C 2.800 31.137,2.675 31.592,2.522 31.745 C 2.369 31.898,2.203 32.302,2.153 32.643 C 2.103 32.984,1.928 33.563,1.765 33.931 C 1.342 34.888,1.306 35.062,1.250 36.424 C 1.223 37.097,1.038 37.547,0.840 37.425 C 0.114 36.976,0.090 45.587,0.090 300.000 C 0.090 554.413,0.114 563.024,0.840 562.575 C 1.038 562.453,1.222 562.903,1.250 563.576 C 1.306 564.938,1.342 565.112,1.765 566.069 C 1.928 566.437,2.103 567.016,2.153 567.357 C 2.203 567.698,2.369 568.102,2.522 568.255 C 2.675 568.408,2.800 568.863,2.800 569.267 C 2.800 569.670,2.935 570.001,3.100 570.003 C 3.459 570.007,4.400 571.944,4.400 572.680 C 4.400 572.966,4.580 573.200,4.800 573.200 C 5.020 573.200,5.200 573.478,5.200 573.817 C 5.200 574.156,5.560 574.820,6.000 575.292 C 6.440 575.764,6.800 576.439,6.800 576.791 C 6.800 577.144,7.520 578.228,8.400 579.200 C 9.280 580.172,10.000 581.128,10.000 581.324 C 10.000 581.519,10.540 582.183,11.200 582.800 C 11.860 583.417,12.400 584.082,12.400 584.279 C 12.400 584.721,15.310 587.600,15.756 587.600 C 15.934 587.600,16.583 588.140,17.200 588.800 C 17.817 589.460,18.481 590.000,18.676 590.000 C 18.872 590.000,19.828 590.720,20.800 591.600 C 21.772 592.480,22.856 593.200,23.209 593.200 C 23.561 593.200,24.236 593.560,24.708 594.000 C 25.180 594.440,25.844 594.800,26.183 594.800 C 26.522 594.800,26.800 594.980,26.800 595.200 C 26.800 595.420,27.034 595.600,27.320 595.600 C 28.056 595.600,29.993 596.541,29.997 596.900 C 29.999 597.065,30.330 597.200,30.733 597.200 C 31.137 597.200,31.592 597.325,31.745 597.478 C 31.898 597.631,32.302 597.797,32.643 597.847 C 32.984 597.897,33.563 598.072,33.931 598.235 C 34.888 598.658,35.062 598.694,36.424 598.750 C 37.097 598.778,37.547 598.962,37.425 599.160 C 37.083 599.714,40.190 599.895,50.000 599.895 C 59.810 599.895,62.917 599.714,62.575 599.160 C 62.453 598.962,62.903 598.778,63.576 598.750 C 64.938 598.694,65.112 598.658,66.069 598.235 C 66.437 598.072,67.016 597.897,67.357 597.847 C 67.698 597.797,68.102 597.631,68.255 597.478 C 68.408 597.325,68.863 597.200,69.267 597.200 C 69.670 597.200,70.001 597.065,70.003 596.900 C 70.007 596.541,71.944 595.600,72.680 595.600 C 72.966 595.600,73.200 595.420,73.200 595.200 C 73.200 594.980,73.478 594.800,73.817 594.800 C 74.156 594.800,74.820 594.440,75.292 594.000 C 75.764 593.560,76.439 593.200,76.791 593.200 C 77.144 593.200,78.228 592.480,79.200 591.600 C 80.172 590.720,81.128 590.000,81.324 590.000 C 81.519 590.000,82.183 589.460,82.800 588.800 C 83.417 588.140,84.082 587.600,84.279 587.600 C 84.721 587.600,87.600 584.690,87.600 584.244 C 87.600 584.066,88.140 583.417,88.800 582.800 C 89.460 582.183,90.000 581.519,90.000 581.324 C 90.000 581.128,90.720 580.172,91.600 579.200 C 92.480 578.228,93.200 577.144,93.200 576.791 C 93.200 576.439,93.560 575.764,94.000 575.292 C 94.440 574.820,94.800 574.156,94.800 573.817 C 94.800 573.478,94.980 573.200,95.200 573.200 C 95.420 573.200,95.600 572.966,95.600 572.680 C 95.600 571.944,96.541 570.007,96.900 570.003 C 97.065 570.001,97.200 569.670,97.200 569.267 C 97.200 568.863,97.325 568.408,97.478 568.255 C 97.631 568.102,97.797 567.698,97.847 567.357 C 97.897 567.016,98.072 566.437,98.235 566.069 C 98.658 565.112,98.694 564.938,98.750 563.576 C 98.779 562.872,98.970 562.458,99.200 562.600 C 99.440 562.749,99.600 562.226,99.600 561.290 C 99.600 560.434,99.733 559.601,99.895 559.438 C 100.309 559.024,100.273 567.734,100.339 454.500 L 100.400 350.800 200.000 350.800 L 299.600 350.800 299.661 454.500 C 299.727 567.734,299.691 559.024,300.105 559.438 C 300.267 559.601,300.400 560.434,300.400 561.290 C 300.400 562.226,300.560 562.749,300.800 562.600 C 301.030 562.458,301.221 562.872,301.250 563.576 C 301.306 564.938,301.342 565.112,301.765 566.069 C 301.928 566.437,302.103 567.016,302.153 567.357 C 302.203 567.698,302.369 568.102,302.522 568.255 C 302.675 568.408,302.800 568.863,302.800 569.267 C 302.800 569.670,302.935 570.001,303.100 570.003 C 303.459 570.007,304.400 571.944,304.400 572.680 C 304.400 572.966,304.580 573.200,304.800 573.200 C 305.020 573.200,305.200 573.478,305.200 573.817 C 305.200 574.156,305.560 574.820,306.000 575.292 C 306.440 575.764,306.800 576.439,306.800 576.791 C 306.800 577.144,307.520 578.228,308.400 579.200 C 309.280 580.172,310.000 581.128,310.000 581.324 C 310.000 581.519,310.540 582.183,311.200 582.800 C 311.860 583.417,312.400 584.082,312.400 584.279 C 312.400 584.721,315.310 587.600,315.756 587.600 C 315.934 587.600,316.583 588.140,317.200 588.800 C 317.817 589.460,318.481 590.000,318.676 590.000 C 318.872 590.000,319.828 590.720,320.800 591.600 C 321.772 592.480,322.856 593.200,323.209 593.200 C 323.561 593.200,324.236 593.560,324.708 594.000 C 325.180 594.440,325.844 594.800,326.183 594.800 C 326.522 594.800,326.800 594.980,326.800 595.200 C 326.800 595.420,327.034 595.600,327.320 595.600 C 328.056 595.600,329.993 596.541,329.997 596.900 C 329.999 597.065,330.330 597.200,330.733 597.200 C 331.137 597.200,331.592 597.325,331.745 597.478 C 331.898 597.631,332.302 597.797,332.643 597.847 C 332.984 597.897,333.563 598.072,333.931 598.235 C 334.888 598.658,335.062 598.694,336.424 598.750 C 337.097 598.778,337.547 598.962,337.425 599.160 C 337.083 599.714,340.190 599.895,350.000 599.895 C 359.810 599.895,362.917 599.714,362.575 599.160 C 362.453 598.962,362.903 598.778,363.576 598.750 C 364.938 598.694,365.112 598.658,366.069 598.235 C 366.437 598.072,367.016 597.897,367.357 597.847 C 367.698 597.797,368.102 597.631,368.255 597.478 C 368.408 597.325,368.863 597.200,369.267 597.200 C 369.670 597.200,370.001 597.065,370.003 596.900 C 370.007 596.541,371.944 595.600,372.680 595.600 C 372.966 595.600,373.200 595.420,373.200 595.200 C 373.200 594.980,373.478 594.800,373.817 594.800 C 374.156 594.800,374.820 594.440,375.292 594.000 C 375.764 593.560,376.439 593.200,376.791 593.200 C 377.144 593.200,378.228 592.480,379.200 591.600 C 380.172 590.720,381.128 590.000,381.324 590.000 C 381.519 590.000,382.183 589.460,382.800 588.800 C 383.417 588.140,384.082 587.600,384.279 587.600 C 384.721 587.600,387.600 584.690,387.600 584.244 C 387.600 584.066,388.140 583.417,388.800 582.800 C 389.460 582.183,390.000 581.519,390.000 581.324 C 390.000 581.128,390.720 580.172,391.600 579.200 C 392.480 578.228,393.200 577.144,393.200 576.791 C 393.200 576.439,393.560 575.764,394.000 575.292 C 394.440 574.820,394.800 574.156,394.800 573.817 C 394.800 573.478,394.980 573.200,395.200 573.200 C 395.420 573.200,395.600 572.966,395.600 572.680 C 395.600 571.944,396.541 570.007,396.900 570.003 C 397.065 570.001,397.200 569.670,397.200 569.267 C 397.200 568.863,397.325 568.408,397.478 568.255 C 397.631 568.102,397.797 567.698,397.847 567.357 C 397.897 567.016,398.072 566.437,398.235 566.069 C 398.658 565.112,398.694 564.938,398.750 563.576 C 398.778 562.903,398.962 562.453,399.160 562.575 C 399.886 563.024,399.910 554.413,399.910 300.000 C 399.910 45.587,399.886 36.976,399.160 37.425 C 398.962 37.547,398.778 37.097,398.750 36.424 C 398.694 35.062,398.658 34.888,398.235 33.931 C 398.072 33.563,397.897 32.984,397.847 32.643 C 397.797 32.302,397.631 31.898,397.478 31.745 C 397.325 31.592,397.200 31.137,397.200 30.733 C 397.200 30.330,397.065 29.999,396.900 29.997 C 396.541 29.993,395.600 28.056,395.600 27.320 C 395.600 27.034,395.420 26.800,395.200 26.800 C 394.980 26.800,394.800 26.522,394.800 26.183 C 394.800 25.844,394.440 25.180,394.000 24.708 C 393.560 24.236,393.200 23.561,393.200 23.209 C 393.200 22.856,392.480 21.772,391.600 20.800 C 390.720 19.828,390.000 18.872,390.000 18.676 C 390.000 18.481,389.460 17.817,388.800 17.200 C 388.140 16.583,387.600 15.918,387.600 15.721 C 387.600 15.279,384.690 12.400,384.244 12.400 C 384.066 12.400,383.417 11.860,382.800 11.200 C 382.183 10.540,381.519 10.000,381.324 10.000 C 381.128 10.000,380.172 9.280,379.200 8.400 C 378.228 7.520,377.144 6.800,376.791 6.800 C 376.439 6.800,375.764 6.440,375.292 6.000 C 374.820 5.560,374.156 5.200,373.817 5.200 C 373.478 5.200,373.200 5.020,373.200 4.800 C 373.200 4.580,372.966 4.400,372.680 4.400 C 371.944 4.400,370.007 3.459,370.003 3.100 C 370.001 2.935,369.670 2.800,369.267 2.800 C 368.863 2.800,368.408 2.675,368.255 2.522 C 368.102 2.369,367.698 2.203,367.357 2.153 C 367.016 2.103,366.437 1.928,366.069 1.765 C 365.112 1.342,364.938 1.306,363.576 1.250 C 362.903 1.222,362.453 1.038,362.575 0.840 C 362.917 0.286,359.810 0.105,350.000 0.105 C 340.190 0.105,337.083 0.286,337.425 0.840 C 337.547 1.038,337.097 1.222,336.424 1.250 C 335.062 1.306,334.888 1.342,333.931 1.765 C 333.563 1.928,332.984 2.103,332.643 2.153 C 332.302 2.203,331.898 2.369,331.745 2.522 C 331.592 2.675,331.137 2.800,330.733 2.800 C 330.330 2.800,329.999 2.935,329.997 3.100 C 329.993 3.459,328.056 4.400,327.320 4.400 C 327.034 4.400,326.800 4.580,326.800 4.800 C 326.800 5.020,326.522 5.200,326.183 5.200 C 325.844 5.200,325.180 5.560,324.708 6.000 C 324.236 6.440,323.561 6.800,323.209 6.800 C 322.856 6.800,321.772 7.520,320.800 8.400 C 319.828 9.280,318.872 10.000,318.676 10.000 C 318.481 10.000,317.817 10.540,317.200 11.200 C 316.583 11.860,315.918 12.400,315.721 12.400 C 315.279 12.400,312.400 15.310,312.400 15.756 C 312.400 15.934,311.860 16.583,311.200 17.200 C 310.540 17.817,310.000 18.481,310.000 18.676 C 310.000 18.872,309.280 19.828,308.400 20.800 C 307.520 21.772,306.800 22.856,306.800 23.209 C 306.800 23.561,306.440 24.236,306.000 24.708 C 305.560 25.180,305.200 25.844,305.200 26.183 C 305.200 26.522,305.020 26.800,304.800 26.800 C 304.580 26.800,304.400 27.034,304.400 27.320 C 304.400 28.056,303.459 29.993,303.100 29.997 C 302.935 29.999,302.800 30.330,302.800 30.733 C 302.800 31.137,302.675 31.592,302.522 31.745 C 302.369 31.898,302.203 32.302,302.153 32.643 C 302.103 32.984,301.928 33.563,301.765 33.931 C 301.342 34.888,301.306 35.062,301.250 36.424 C 301.221 37.128,301.030 37.542,300.800 37.400 C 300.560 37.251,300.400 37.774,300.400 38.710 C 300.400 39.566,300.267 40.399,300.105 40.562 C 299.691 40.976,299.727 32.266,299.661 145.500 L 299.600 249.200 200.000 249.200 L 100.400 249.200 100.339 145.500 C 100.273 32.266,100.309 40.976,99.895 40.562 C 99.733 40.399,99.600 39.566,99.600 38.710 C 99.600 37.774,99.440 37.251,99.200 37.400 C 98.970 37.542,98.779 37.128,98.750 36.424 C 98.694 35.062,98.658 34.888,98.235 33.931 C 98.072 33.563,97.897 32.984,97.847 32.643 C 97.797 32.302,97.631 31.898,97.478 31.745 C 97.325 31.592,97.200 31.137,97.200 30.733 C 97.200 30.330,97.065 29.999,96.900 29.997 C 96.541 29.993,95.600 28.056,95.600 27.320 C 95.600 27.034,95.420 26.800,95.200 26.800 C 94.980 26.800,94.800 26.522,94.800 26.183 C 94.800 25.844,94.440 25.180,94.000 24.708 C 93.560 24.236,93.200 23.561,93.200 23.209 C 93.200 22.856,92.480 21.772,91.600 20.800 C 90.720 19.828,90.000 18.872,90.000 18.676 C 90.000 18.481,89.460 17.817,88.800 17.200 C 88.140 16.583,87.600 15.918,87.600 15.721 C 87.600 15.279,84.690 12.400,84.244 12.400 C 84.066 12.400,83.417 11.860,82.800 11.200 C 82.183 10.540,81.519 10.000,81.324 10.000 C 81.128 10.000,80.172 9.280,79.200 8.400 C 78.228 7.520,77.144 6.800,76.791 6.800 C 76.439 6.800,75.764 6.440,75.292 6.000 C 74.820 5.560,74.156 5.200,73.817 5.200 C 73.478 5.200,73.200 5.020,73.200 4.800 C 73.200 4.580,72.966 4.400,72.680 4.400 C 71.944 4.400,70.007 3.459,70.003 3.100 C 70.001 2.935,69.670 2.800,69.267 2.800 C 68.863 2.800,68.408 2.675,68.255 2.522 C 68.102 2.369,67.698 2.203,67.357 2.153 C 67.016 2.103,66.437 1.928,66.069 1.765 C 65.112 1.342,64.938 1.306,63.576 1.250 C 62.903 1.222,62.453 1.038,62.575 0.840 C 62.984 0.179,45.082 -0.229,38.891 0.301 " stroke="none" fill="#448cdc" fill-rule="evenodd"></path><path id="path1" d="M24.229 5.829 C 23.805 6.138,23.536 6.469,23.630 6.563 C 23.724 6.657,24.148 6.481,24.571 6.171 C 24.995 5.862,25.264 5.531,25.170 5.437 C 25.076 5.343,24.652 5.519,24.229 5.829 M74.800 5.500 C 74.800 5.669,75.160 6.032,75.600 6.307 C 76.040 6.582,76.400 6.669,76.400 6.500 C 76.400 6.331,76.040 5.968,75.600 5.693 C 75.160 5.418,74.800 5.331,74.800 5.500 M324.229 5.829 C 323.805 6.138,323.536 6.469,323.630 6.563 C 323.724 6.657,324.148 6.481,324.571 6.171 C 324.995 5.862,325.264 5.531,325.170 5.437 C 325.076 5.343,324.652 5.519,324.229 5.829 M374.800 5.500 C 374.800 5.669,375.160 6.032,375.600 6.307 C 376.040 6.582,376.400 6.669,376.400 6.500 C 376.400 6.331,376.040 5.968,375.600 5.693 C 375.160 5.418,374.800 5.331,374.800 5.500 M19.300 8.998 C 18.557 9.842,18.694 10.073,19.600 9.507 C 20.040 9.232,20.400 8.871,20.400 8.704 C 20.400 8.227,19.849 8.375,19.300 8.998 M79.600 8.704 C 79.600 8.871,79.960 9.232,80.400 9.507 C 81.330 10.088,81.454 9.797,80.629 8.971 C 79.998 8.341,79.600 8.237,79.600 8.704 M319.300 8.998 C 318.557 9.842,318.694 10.073,319.600 9.507 C 320.040 9.232,320.400 8.871,320.400 8.704 C 320.400 8.227,319.849 8.375,319.300 8.998 M379.600 8.704 C 379.600 8.871,379.960 9.232,380.400 9.507 C 381.330 10.088,381.454 9.797,380.629 8.971 C 379.998 8.341,379.600 8.237,379.600 8.704 M16.229 11.429 C 15.805 11.738,15.572 12.105,15.710 12.243 C 15.849 12.382,16.262 12.195,16.629 11.829 C 17.491 10.966,17.225 10.700,16.229 11.429 M82.800 11.025 C 82.800 11.325,83.873 12.400,84.171 12.400 C 84.680 12.400,84.351 11.762,83.600 11.293 C 83.160 11.018,82.800 10.898,82.800 11.025 M316.229 11.429 C 315.805 11.738,315.572 12.105,315.710 12.243 C 315.849 12.382,316.262 12.195,316.629 11.829 C 317.491 10.966,317.225 10.700,316.229 11.429 M382.800 11.025 C 382.800 11.325,383.873 12.400,384.171 12.400 C 384.680 12.400,384.351 11.762,383.600 11.293 C 383.160 11.018,382.800 10.898,382.800 11.025 M11.293 16.400 C 11.018 16.840,10.898 17.200,11.025 17.200 C 11.325 17.200,12.400 16.127,12.400 15.829 C 12.400 15.320,11.762 15.649,11.293 16.400 M87.600 15.829 C 87.600 16.127,88.675 17.200,88.975 17.200 C 89.102 17.200,88.982 16.840,88.707 16.400 C 88.238 15.649,87.600 15.320,87.600 15.829 M311.293 16.400 C 311.018 16.840,310.898 17.200,311.025 17.200 C 311.325 17.200,312.400 16.127,312.400 15.829 C 312.400 15.320,311.762 15.649,311.293 16.400 M387.600 15.829 C 387.600 16.127,388.675 17.200,388.975 17.200 C 389.102 17.200,388.982 16.840,388.707 16.400 C 388.238 15.649,387.600 15.320,387.600 15.829 M8.900 19.398 C 8.331 20.045,8.261 20.400,8.704 20.400 C 8.871 20.400,9.232 20.040,9.507 19.600 C 10.078 18.687,9.651 18.545,8.900 19.398 M90.493 19.600 C 90.962 20.351,91.600 20.680,91.600 20.171 C 91.600 19.873,90.525 18.800,90.225 18.800 C 90.098 18.800,90.218 19.160,90.493 19.600 M308.900 19.398 C 308.331 20.045,308.261 20.400,308.704 20.400 C 308.871 20.400,309.232 20.040,309.507 19.600 C 310.078 18.687,309.651 18.545,308.900 19.398 M390.493 19.600 C 390.962 20.351,391.600 20.680,391.600 20.171 C 391.600 19.873,390.525 18.800,390.225 18.800 C 390.098 18.800,390.218 19.160,390.493 19.600 M5.693 24.400 C 5.418 24.840,5.331 25.200,5.500 25.200 C 5.669 25.200,6.032 24.840,6.307 24.400 C 6.582 23.960,6.669 23.600,6.500 23.600 C 6.331 23.600,5.968 23.960,5.693 24.400 M93.693 24.400 C 93.968 24.840,94.331 25.200,94.500 25.200 C 94.669 25.200,94.582 24.840,94.307 24.400 C 94.032 23.960,93.669 23.600,93.500 23.600 C 93.331 23.600,93.418 23.960,93.693 24.400 M305.693 24.400 C 305.418 24.840,305.331 25.200,305.500 25.200 C 305.669 25.200,306.032 24.840,306.307 24.400 C 306.582 23.960,306.669 23.600,306.500 23.600 C 306.331 23.600,305.968 23.960,305.693 24.400 M393.693 24.400 C 393.968 24.840,394.331 25.200,394.500 25.200 C 394.669 25.200,394.582 24.840,394.307 24.400 C 394.032 23.960,393.669 23.600,393.500 23.600 C 393.331 23.600,393.418 23.960,393.693 24.400 M298.800 50.000 C 298.800 50.440,298.980 50.800,299.200 50.800 C 299.420 50.800,299.600 50.440,299.600 50.000 C 299.600 49.560,299.420 49.200,299.200 49.200 C 298.980 49.200,298.800 49.560,298.800 50.000 M5.693 575.600 C 5.968 576.040,6.331 576.400,6.500 576.400 C 6.669 576.400,6.582 576.040,6.307 575.600 C 6.032 575.160,5.669 574.800,5.500 574.800 C 5.331 574.800,5.418 575.160,5.693 575.600 M93.693 575.600 C 93.418 576.040,93.331 576.400,93.500 576.400 C 93.669 576.400,94.032 576.040,94.307 575.600 C 94.582 575.160,94.669 574.800,94.500 574.800 C 94.331 574.800,93.968 575.160,93.693 575.600 M305.693 575.600 C 305.968 576.040,306.331 576.400,306.500 576.400 C 306.669 576.400,306.582 576.040,306.307 575.600 C 306.032 575.160,305.669 574.800,305.500 574.800 C 305.331 574.800,305.418 575.160,305.693 575.600 M393.693 575.600 C 393.418 576.040,393.331 576.400,393.500 576.400 C 393.669 576.400,394.032 576.040,394.307 575.600 C 394.582 575.160,394.669 574.800,394.500 574.800 C 394.331 574.800,393.968 575.160,393.693 575.600 M8.400 579.829 C 8.400 580.127,9.475 581.200,9.775 581.200 C 9.902 581.200,9.782 580.840,9.507 580.400 C 9.038 579.649,8.400 579.320,8.400 579.829 M90.493 580.400 C 90.218 580.840,90.098 581.200,90.225 581.200 C 90.525 581.200,91.600 580.127,91.600 579.829 C 91.600 579.320,90.962 579.649,90.493 580.400 M308.400 579.829 C 308.400 580.127,309.475 581.200,309.775 581.200 C 309.902 581.200,309.782 580.840,309.507 580.400 C 309.038 579.649,308.400 579.320,308.400 579.829 M390.493 580.400 C 390.218 580.840,390.098 581.200,390.225 581.200 C 390.525 581.200,391.600 580.127,391.600 579.829 C 391.600 579.320,390.962 579.649,390.493 580.400 M11.293 583.600 C 11.762 584.351,12.400 584.680,12.400 584.171 C 12.400 583.873,11.325 582.800,11.025 582.800 C 10.898 582.800,11.018 583.160,11.293 583.600 M88.100 583.398 C 87.531 584.045,87.461 584.400,87.904 584.400 C 88.071 584.400,88.432 584.040,88.707 583.600 C 89.278 582.687,88.851 582.545,88.100 583.398 M311.293 583.600 C 311.762 584.351,312.400 584.680,312.400 584.171 C 312.400 583.873,311.325 582.800,311.025 582.800 C 310.898 582.800,311.018 583.160,311.293 583.600 M388.100 583.398 C 387.531 584.045,387.461 584.400,387.904 584.400 C 388.071 584.400,388.432 584.040,388.707 583.600 C 389.278 582.687,388.851 582.545,388.100 583.398 M15.600 587.904 C 15.600 588.071,15.960 588.432,16.400 588.707 C 17.330 589.288,17.454 588.997,16.629 588.171 C 15.998 587.541,15.600 587.437,15.600 587.904 M83.300 588.198 C 82.557 589.042,82.694 589.273,83.600 588.707 C 84.040 588.432,84.400 588.071,84.400 587.904 C 84.400 587.427,83.849 587.575,83.300 588.198 M315.600 587.904 C 315.600 588.071,315.960 588.432,316.400 588.707 C 317.330 589.288,317.454 588.997,316.629 588.171 C 315.998 587.541,315.600 587.437,315.600 587.904 M383.300 588.198 C 382.557 589.042,382.694 589.273,383.600 588.707 C 384.040 588.432,384.400 588.071,384.400 587.904 C 384.400 587.427,383.849 587.575,383.300 588.198 M18.800 590.225 C 18.800 590.525,19.873 591.600,20.171 591.600 C 20.680 591.600,20.351 590.962,19.600 590.493 C 19.160 590.218,18.800 590.098,18.800 590.225 M80.229 590.629 C 79.805 590.938,79.572 591.305,79.710 591.443 C 79.849 591.582,80.262 591.395,80.629 591.029 C 81.491 590.166,81.225 589.900,80.229 590.629 M318.800 590.225 C 318.800 590.525,319.873 591.600,320.171 591.600 C 320.680 591.600,320.351 590.962,319.600 590.493 C 319.160 590.218,318.800 590.098,318.800 590.225 M380.229 590.629 C 379.805 590.938,379.572 591.305,379.710 591.443 C 379.849 591.582,380.262 591.395,380.629 591.029 C 381.491 590.166,381.225 589.900,380.229 590.629 M23.600 593.500 C 23.600 593.669,23.960 594.032,24.400 594.307 C 24.840 594.582,25.200 594.669,25.200 594.500 C 25.200 594.331,24.840 593.968,24.400 593.693 C 23.960 593.418,23.600 593.331,23.600 593.500 M75.429 593.829 C 75.005 594.138,74.736 594.469,74.830 594.563 C 74.924 594.657,75.348 594.481,75.771 594.171 C 76.195 593.862,76.464 593.531,76.370 593.437 C 76.276 593.343,75.852 593.519,75.429 593.829 M323.600 593.500 C 323.600 593.669,323.960 594.032,324.400 594.307 C 324.840 594.582,325.200 594.669,325.200 594.500 C 325.200 594.331,324.840 593.968,324.400 593.693 C 323.960 593.418,323.600 593.331,323.600 593.500 M375.429 593.829 C 375.005 594.138,374.736 594.469,374.830 594.563 C 374.924 594.657,375.348 594.481,375.771 594.171 C 376.195 593.862,376.464 593.531,376.370 593.437 C 376.276 593.343,375.852 593.519,375.429 593.829 " stroke="none" fill="#488cdc" fill-rule="evenodd"></path><path id="path2" d="M24.229 5.829 C 23.805 6.138,23.536 6.469,23.630 6.563 C 23.724 6.657,24.148 6.481,24.571 6.171 C 24.995 5.862,25.264 5.531,25.170 5.437 C 25.076 5.343,24.652 5.519,24.229 5.829 M74.800 5.500 C 74.800 5.669,75.160 6.032,75.600 6.307 C 76.040 6.582,76.400 6.669,76.400 6.500 C 76.400 6.331,76.040 5.968,75.600 5.693 C 75.160 5.418,74.800 5.331,74.800 5.500 M324.229 5.829 C 323.805 6.138,323.536 6.469,323.630 6.563 C 323.724 6.657,324.148 6.481,324.571 6.171 C 324.995 5.862,325.264 5.531,325.170 5.437 C 325.076 5.343,324.652 5.519,324.229 5.829 M374.800 5.500 C 374.800 5.669,375.160 6.032,375.600 6.307 C 376.040 6.582,376.400 6.669,376.400 6.500 C 376.400 6.331,376.040 5.968,375.600 5.693 C 375.160 5.418,374.800 5.331,374.800 5.500 M19.300 8.998 C 18.557 9.842,18.694 10.073,19.600 9.507 C 20.040 9.232,20.400 8.871,20.400 8.704 C 20.400 8.227,19.849 8.375,19.300 8.998 M79.600 8.704 C 79.600 8.871,79.960 9.232,80.400 9.507 C 81.330 10.088,81.454 9.797,80.629 8.971 C 79.998 8.341,79.600 8.237,79.600 8.704 M319.300 8.998 C 318.557 9.842,318.694 10.073,319.600 9.507 C 320.040 9.232,320.400 8.871,320.400 8.704 C 320.400 8.227,319.849 8.375,319.300 8.998 M379.600 8.704 C 379.600 8.871,379.960 9.232,380.400 9.507 C 381.330 10.088,381.454 9.797,380.629 8.971 C 379.998 8.341,379.600 8.237,379.600 8.704 M16.229 11.429 C 15.805 11.738,15.572 12.105,15.710 12.243 C 15.849 12.382,16.262 12.195,16.629 11.829 C 17.491 10.966,17.225 10.700,16.229 11.429 M82.800 11.025 C 82.800 11.325,83.873 12.400,84.171 12.400 C 84.680 12.400,84.351 11.762,83.600 11.293 C 83.160 11.018,82.800 10.898,82.800 11.025 M316.229 11.429 C 315.805 11.738,315.572 12.105,315.710 12.243 C 315.849 12.382,316.262 12.195,316.629 11.829 C 317.491 10.966,317.225 10.700,316.229 11.429 M382.800 11.025 C 382.800 11.325,383.873 12.400,384.171 12.400 C 384.680 12.400,384.351 11.762,383.600 11.293 C 383.160 11.018,382.800 10.898,382.800 11.025 M11.293 16.400 C 11.018 16.840,10.898 17.200,11.025 17.200 C 11.325 17.200,12.400 16.127,12.400 15.829 C 12.400 15.320,11.762 15.649,11.293 16.400 M87.600 15.829 C 87.600 16.127,88.675 17.200,88.975 17.200 C 89.102 17.200,88.982 16.840,88.707 16.400 C 88.238 15.649,87.600 15.320,87.600 15.829 M311.293 16.400 C 311.018 16.840,310.898 17.200,311.025 17.200 C 311.325 17.200,312.400 16.127,312.400 15.829 C 312.400 15.320,311.762 15.649,311.293 16.400 M387.600 15.829 C 387.600 16.127,388.675 17.200,388.975 17.200 C 389.102 17.200,388.982 16.840,388.707 16.400 C 388.238 15.649,387.600 15.320,387.600 15.829 M8.900 19.398 C 8.331 20.045,8.261 20.400,8.704 20.400 C 8.871 20.400,9.232 20.040,9.507 19.600 C 10.078 18.687,9.651 18.545,8.900 19.398 M90.493 19.600 C 90.962 20.351,91.600 20.680,91.600 20.171 C 91.600 19.873,90.525 18.800,90.225 18.800 C 90.098 18.800,90.218 19.160,90.493 19.600 M308.900 19.398 C 308.331 20.045,308.261 20.400,308.704 20.400 C 308.871 20.400,309.232 20.040,309.507 19.600 C 310.078 18.687,309.651 18.545,308.900 19.398 M390.493 19.600 C 390.962 20.351,391.600 20.680,391.600 20.171 C 391.600 19.873,390.525 18.800,390.225 18.800 C 390.098 18.800,390.218 19.160,390.493 19.600 M5.693 24.400 C 5.418 24.840,5.331 25.200,5.500 25.200 C 5.669 25.200,6.032 24.840,6.307 24.400 C 6.582 23.960,6.669 23.600,6.500 23.600 C 6.331 23.600,5.968 23.960,5.693 24.400 M93.693 24.400 C 93.968 24.840,94.331 25.200,94.500 25.200 C 94.669 25.200,94.582 24.840,94.307 24.400 C 94.032 23.960,93.669 23.600,93.500 23.600 C 93.331 23.600,93.418 23.960,93.693 24.400 M305.693 24.400 C 305.418 24.840,305.331 25.200,305.500 25.200 C 305.669 25.200,306.032 24.840,306.307 24.400 C 306.582 23.960,306.669 23.600,306.500 23.600 C 306.331 23.600,305.968 23.960,305.693 24.400 M393.693 24.400 C 393.968 24.840,394.331 25.200,394.500 25.200 C 394.669 25.200,394.582 24.840,394.307 24.400 C 394.032 23.960,393.669 23.600,393.500 23.600 C 393.331 23.600,393.418 23.960,393.693 24.400 M298.800 50.000 C 298.800 50.440,298.980 50.800,299.200 50.800 C 299.420 50.800,299.600 50.440,299.600 50.000 C 299.600 49.560,299.420 49.200,299.200 49.200 C 298.980 49.200,298.800 49.560,298.800 50.000 M5.693 575.600 C 5.968 576.040,6.331 576.400,6.500 576.400 C 6.669 576.400,6.582 576.040,6.307 575.600 C 6.032 575.160,5.669 574.800,5.500 574.800 C 5.331 574.800,5.418 575.160,5.693 575.600 M93.693 575.600 C 93.418 576.040,93.331 576.400,93.500 576.400 C 93.669 576.400,94.032 576.040,94.307 575.600 C 94.582 575.160,94.669 574.800,94.500 574.800 C 94.331 574.800,93.968 575.160,93.693 575.600 M305.693 575.600 C 305.968 576.040,306.331 576.400,306.500 576.400 C 306.669 576.400,306.582 576.040,306.307 575.600 C 306.032 575.160,305.669 574.800,305.500 574.800 C 305.331 574.800,305.418 575.160,305.693 575.600 M393.693 575.600 C 393.418 576.040,393.331 576.400,393.500 576.400 C 393.669 576.400,394.032 576.040,394.307 575.600 C 394.582 575.160,394.669 574.800,394.500 574.800 C 394.331 574.800,393.968 575.160,393.693 575.600 M8.400 579.829 C 8.400 580.127,9.475 581.200,9.775 581.200 C 9.902 581.200,9.782 580.840,9.507 580.400 C 9.038 579.649,8.400 579.320,8.400 579.829 M90.493 580.400 C 90.218 580.840,90.098 581.200,90.225 581.200 C 90.525 581.200,91.600 580.127,91.600 579.829 C 91.600 579.320,90.962 579.649,90.493 580.400 M308.400 579.829 C 308.400 580.127,309.475 581.200,309.775 581.200 C 309.902 581.200,309.782 580.840,309.507 580.400 C 309.038 579.649,308.400 579.320,308.400 579.829 M390.493 580.400 C 390.218 580.840,390.098 581.200,390.225 581.200 C 390.525 581.200,391.600 580.127,391.600 579.829 C 391.600 579.320,390.962 579.649,390.493 580.400 M11.293 583.600 C 11.762 584.351,12.400 584.680,12.400 584.171 C 12.400 583.873,11.325 582.800,11.025 582.800 C 10.898 582.800,11.018 583.160,11.293 583.600 M88.100 583.398 C 87.531 584.045,87.461 584.400,87.904 584.400 C 88.071 584.400,88.432 584.040,88.707 583.600 C 89.278 582.687,88.851 582.545,88.100 583.398 M311.293 583.600 C 311.762 584.351,312.400 584.680,312.400 584.171 C 312.400 583.873,311.325 582.800,311.025 582.800 C 310.898 582.800,311.018 583.160,311.293 583.600 M388.100 583.398 C 387.531 584.045,387.461 584.400,387.904 584.400 C 388.071 584.400,388.432 584.040,388.707 583.600 C 389.278 582.687,388.851 582.545,388.100 583.398 M15.600 587.904 C 15.600 588.071,15.960 588.432,16.400 588.707 C 17.330 589.288,17.454 588.997,16.629 588.171 C 15.998 587.541,15.600 587.437,15.600 587.904 M83.300 588.198 C 82.557 589.042,82.694 589.273,83.600 588.707 C 84.040 588.432,84.400 588.071,84.400 587.904 C 84.400 587.427,83.849 587.575,83.300 588.198 M315.600 587.904 C 315.600 588.071,315.960 588.432,316.400 588.707 C 317.330 589.288,317.454 588.997,316.629 588.171 C 315.998 587.541,315.600 587.437,315.600 587.904 M383.300 588.198 C 382.557 589.042,382.694 589.273,383.600 588.707 C 384.040 588.432,384.400 588.071,384.400 587.904 C 384.400 587.427,383.849 587.575,383.300 588.198 M18.800 590.225 C 18.800 590.525,19.873 591.600,20.171 591.600 C 20.680 591.600,20.351 590.962,19.600 590.493 C 19.160 590.218,18.800 590.098,18.800 590.225 M80.229 590.629 C 79.805 590.938,79.572 591.305,79.710 591.443 C 79.849 591.582,80.262 591.395,80.629 591.029 C 81.491 590.166,81.225 589.900,80.229 590.629 M318.800 590.225 C 318.800 590.525,319.873 591.600,320.171 591.600 C 320.680 591.600,320.351 590.962,319.600 590.493 C 319.160 590.218,318.800 590.098,318.800 590.225 M380.229 590.629 C 379.805 590.938,379.572 591.305,379.710 591.443 C 379.849 591.582,380.262 591.395,380.629 591.029 C 381.491 590.166,381.225 589.900,380.229 590.629 M23.600 593.500 C 23.600 593.669,23.960 594.032,24.400 594.307 C 24.840 594.582,25.200 594.669,25.200 594.500 C 25.200 594.331,24.840 593.968,24.400 593.693 C 23.960 593.418,23.600 593.331,23.600 593.500 M75.429 593.829 C 75.005 594.138,74.736 594.469,74.830 594.563 C 74.924 594.657,75.348 594.481,75.771 594.171 C 76.195 593.862,76.464 593.531,76.370 593.437 C 76.276 593.343,75.852 593.519,75.429 593.829 M323.600 593.500 C 323.600 593.669,323.960 594.032,324.400 594.307 C 324.840 594.582,325.200 594.669,325.200 594.500 C 325.200 594.331,324.840 593.968,324.400 593.693 C 323.960 593.418,323.600 593.331,323.600 593.500 M375.429 593.829 C 375.005 594.138,374.736 594.469,374.830 594.563 C 374.924 594.657,375.348 594.481,375.771 594.171 C 376.195 593.862,376.464 593.531,376.370 593.437 C 376.276 593.343,375.852 593.519,375.429 593.829 " stroke="none" fill="#488cdc" fill-rule="evenodd"></path><path id="path3" d="M24.229 5.829 C 23.805 6.138,23.536 6.469,23.630 6.563 C 23.724 6.657,24.148 6.481,24.571 6.171 C 24.995 5.862,25.264 5.531,25.170 5.437 C 25.076 5.343,24.652 5.519,24.229 5.829 M74.800 5.500 C 74.800 5.669,75.160 6.032,75.600 6.307 C 76.040 6.582,76.400 6.669,76.400 6.500 C 76.400 6.331,76.040 5.968,75.600 5.693 C 75.160 5.418,74.800 5.331,74.800 5.500 M324.229 5.829 C 323.805 6.138,323.536 6.469,323.630 6.563 C 323.724 6.657,324.148 6.481,324.571 6.171 C 324.995 5.862,325.264 5.531,325.170 5.437 C 325.076 5.343,324.652 5.519,324.229 5.829 M374.800 5.500 C 374.800 5.669,375.160 6.032,375.600 6.307 C 376.040 6.582,376.400 6.669,376.400 6.500 C 376.400 6.331,376.040 5.968,375.600 5.693 C 375.160 5.418,374.800 5.331,374.800 5.500 M19.300 8.998 C 18.557 9.842,18.694 10.073,19.600 9.507 C 20.040 9.232,20.400 8.871,20.400 8.704 C 20.400 8.227,19.849 8.375,19.300 8.998 M79.600 8.704 C 79.600 8.871,79.960 9.232,80.400 9.507 C 81.330 10.088,81.454 9.797,80.629 8.971 C 79.998 8.341,79.600 8.237,79.600 8.704 M319.300 8.998 C 318.557 9.842,318.694 10.073,319.600 9.507 C 320.040 9.232,320.400 8.871,320.400 8.704 C 320.400 8.227,319.849 8.375,319.300 8.998 M379.600 8.704 C 379.600 8.871,379.960 9.232,380.400 9.507 C 381.330 10.088,381.454 9.797,380.629 8.971 C 379.998 8.341,379.600 8.237,379.600 8.704 M16.229 11.429 C 15.805 11.738,15.572 12.105,15.710 12.243 C 15.849 12.382,16.262 12.195,16.629 11.829 C 17.491 10.966,17.225 10.700,16.229 11.429 M82.800 11.025 C 82.800 11.325,83.873 12.400,84.171 12.400 C 84.680 12.400,84.351 11.762,83.600 11.293 C 83.160 11.018,82.800 10.898,82.800 11.025 M316.229 11.429 C 315.805 11.738,315.572 12.105,315.710 12.243 C 315.849 12.382,316.262 12.195,316.629 11.829 C 317.491 10.966,317.225 10.700,316.229 11.429 M382.800 11.025 C 382.800 11.325,383.873 12.400,384.171 12.400 C 384.680 12.400,384.351 11.762,383.600 11.293 C 383.160 11.018,382.800 10.898,382.800 11.025 M11.293 16.400 C 11.018 16.840,10.898 17.200,11.025 17.200 C 11.325 17.200,12.400 16.127,12.400 15.829 C 12.400 15.320,11.762 15.649,11.293 16.400 M87.600 15.829 C 87.600 16.127,88.675 17.200,88.975 17.200 C 89.102 17.200,88.982 16.840,88.707 16.400 C 88.238 15.649,87.600 15.320,87.600 15.829 M311.293 16.400 C 311.018 16.840,310.898 17.200,311.025 17.200 C 311.325 17.200,312.400 16.127,312.400 15.829 C 312.400 15.320,311.762 15.649,311.293 16.400 M387.600 15.829 C 387.600 16.127,388.675 17.200,388.975 17.200 C 389.102 17.200,388.982 16.840,388.707 16.400 C 388.238 15.649,387.600 15.320,387.600 15.829 M8.900 19.398 C 8.331 20.045,8.261 20.400,8.704 20.400 C 8.871 20.400,9.232 20.040,9.507 19.600 C 10.078 18.687,9.651 18.545,8.900 19.398 M90.493 19.600 C 90.962 20.351,91.600 20.680,91.600 20.171 C 91.600 19.873,90.525 18.800,90.225 18.800 C 90.098 18.800,90.218 19.160,90.493 19.600 M308.900 19.398 C 308.331 20.045,308.261 20.400,308.704 20.400 C 308.871 20.400,309.232 20.040,309.507 19.600 C 310.078 18.687,309.651 18.545,308.900 19.398 M390.493 19.600 C 390.962 20.351,391.600 20.680,391.600 20.171 C 391.600 19.873,390.525 18.800,390.225 18.800 C 390.098 18.800,390.218 19.160,390.493 19.600 M5.693 24.400 C 5.418 24.840,5.331 25.200,5.500 25.200 C 5.669 25.200,6.032 24.840,6.307 24.400 C 6.582 23.960,6.669 23.600,6.500 23.600 C 6.331 23.600,5.968 23.960,5.693 24.400 M93.693 24.400 C 93.968 24.840,94.331 25.200,94.500 25.200 C 94.669 25.200,94.582 24.840,94.307 24.400 C 94.032 23.960,93.669 23.600,93.500 23.600 C 93.331 23.600,93.418 23.960,93.693 24.400 M305.693 24.400 C 305.418 24.840,305.331 25.200,305.500 25.200 C 305.669 25.200,306.032 24.840,306.307 24.400 C 306.582 23.960,306.669 23.600,306.500 23.600 C 306.331 23.600,305.968 23.960,305.693 24.400 M393.693 24.400 C 393.968 24.840,394.331 25.200,394.500 25.200 C 394.669 25.200,394.582 24.840,394.307 24.400 C 394.032 23.960,393.669 23.600,393.500 23.600 C 393.331 23.600,393.418 23.960,393.693 24.400 M298.800 50.000 C 298.800 50.440,298.980 50.800,299.200 50.800 C 299.420 50.800,299.600 50.440,299.600 50.000 C 299.600 49.560,299.420 49.200,299.200 49.200 C 298.980 49.200,298.800 49.560,298.800 50.000 M5.693 575.600 C 5.968 576.040,6.331 576.400,6.500 576.400 C 6.669 576.400,6.582 576.040,6.307 575.600 C 6.032 575.160,5.669 574.800,5.500 574.800 C 5.331 574.800,5.418 575.160,5.693 575.600 M93.693 575.600 C 93.418 576.040,93.331 576.400,93.500 576.400 C 93.669 576.400,94.032 576.040,94.307 575.600 C 94.582 575.160,94.669 574.800,94.500 574.800 C 94.331 574.800,93.968 575.160,93.693 575.600 M305.693 575.600 C 305.968 576.040,306.331 576.400,306.500 576.400 C 306.669 576.400,306.582 576.040,306.307 575.600 C 306.032 575.160,305.669 574.800,305.500 574.800 C 305.331 574.800,305.418 575.160,305.693 575.600 M393.693 575.600 C 393.418 576.040,393.331 576.400,393.500 576.400 C 393.669 576.400,394.032 576.040,394.307 575.600 C 394.582 575.160,394.669 574.800,394.500 574.800 C 394.331 574.800,393.968 575.160,393.693 575.600 M8.400 579.829 C 8.400 580.127,9.475 581.200,9.775 581.200 C 9.902 581.200,9.782 580.840,9.507 580.400 C 9.038 579.649,8.400 579.320,8.400 579.829 M90.493 580.400 C 90.218 580.840,90.098 581.200,90.225 581.200 C 90.525 581.200,91.600 580.127,91.600 579.829 C 91.600 579.320,90.962 579.649,90.493 580.400 M308.400 579.829 C 308.400 580.127,309.475 581.200,309.775 581.200 C 309.902 581.200,309.782 580.840,309.507 580.400 C 309.038 579.649,308.400 579.320,308.400 579.829 M390.493 580.400 C 390.218 580.840,390.098 581.200,390.225 581.200 C 390.525 581.200,391.600 580.127,391.600 579.829 C 391.600 579.320,390.962 579.649,390.493 580.400 M11.293 583.600 C 11.762 584.351,12.400 584.680,12.400 584.171 C 12.400 583.873,11.325 582.800,11.025 582.800 C 10.898 582.800,11.018 583.160,11.293 583.600 M88.100 583.398 C 87.531 584.045,87.461 584.400,87.904 584.400 C 88.071 584.400,88.432 584.040,88.707 583.600 C 89.278 582.687,88.851 582.545,88.100 583.398 M311.293 583.600 C 311.762 584.351,312.400 584.680,312.400 584.171 C 312.400 583.873,311.325 582.800,311.025 582.800 C 310.898 582.800,311.018 583.160,311.293 583.600 M388.100 583.398 C 387.531 584.045,387.461 584.400,387.904 584.400 C 388.071 584.400,388.432 584.040,388.707 583.600 C 389.278 582.687,388.851 582.545,388.100 583.398 M15.600 587.904 C 15.600 588.071,15.960 588.432,16.400 588.707 C 17.330 589.288,17.454 588.997,16.629 588.171 C 15.998 587.541,15.600 587.437,15.600 587.904 M83.300 588.198 C 82.557 589.042,82.694 589.273,83.600 588.707 C 84.040 588.432,84.400 588.071,84.400 587.904 C 84.400 587.427,83.849 587.575,83.300 588.198 M315.600 587.904 C 315.600 588.071,315.960 588.432,316.400 588.707 C 317.330 589.288,317.454 588.997,316.629 588.171 C 315.998 587.541,315.600 587.437,315.600 587.904 M383.300 588.198 C 382.557 589.042,382.694 589.273,383.600 588.707 C 384.040 588.432,384.400 588.071,384.400 587.904 C 384.400 587.427,383.849 587.575,383.300 588.198 M18.800 590.225 C 18.800 590.525,19.873 591.600,20.171 591.600 C 20.680 591.600,20.351 590.962,19.600 590.493 C 19.160 590.218,18.800 590.098,18.800 590.225 M80.229 590.629 C 79.805 590.938,79.572 591.305,79.710 591.443 C 79.849 591.582,80.262 591.395,80.629 591.029 C 81.491 590.166,81.225 589.900,80.229 590.629 M318.800 590.225 C 318.800 590.525,319.873 591.600,320.171 591.600 C 320.680 591.600,320.351 590.962,319.600 590.493 C 319.160 590.218,318.800 590.098,318.800 590.225 M380.229 590.629 C 379.805 590.938,379.572 591.305,379.710 591.443 C 379.849 591.582,380.262 591.395,380.629 591.029 C 381.491 590.166,381.225 589.900,380.229 590.629 M23.600 593.500 C 23.600 593.669,23.960 594.032,24.400 594.307 C 24.840 594.582,25.200 594.669,25.200 594.500 C 25.200 594.331,24.840 593.968,24.400 593.693 C 23.960 593.418,23.600 593.331,23.600 593.500 M75.429 593.829 C 75.005 594.138,74.736 594.469,74.830 594.563 C 74.924 594.657,75.348 594.481,75.771 594.171 C 76.195 593.862,76.464 593.531,76.370 593.437 C 76.276 593.343,75.852 593.519,75.429 593.829 M323.600 593.500 C 323.600 593.669,323.960 594.032,324.400 594.307 C 324.840 594.582,325.200 594.669,325.200 594.500 C 325.200 594.331,324.840 593.968,324.400 593.693 C 323.960 593.418,323.600 593.331,323.600 593.500 M375.429 593.829 C 375.005 594.138,374.736 594.469,374.830 594.563 C 374.924 594.657,375.348 594.481,375.771 594.171 C 376.195 593.862,376.464 593.531,376.370 593.437 C 376.276 593.343,375.852 593.519,375.429 593.829 " stroke="none" fill="#488cdc" fill-rule="evenodd"></path><path id="path4" d="M24.229 5.829 C 23.805 6.138,23.536 6.469,23.630 6.563 C 23.724 6.657,24.148 6.481,24.571 6.171 C 24.995 5.862,25.264 5.531,25.170 5.437 C 25.076 5.343,24.652 5.519,24.229 5.829 M74.800 5.500 C 74.800 5.669,75.160 6.032,75.600 6.307 C 76.040 6.582,76.400 6.669,76.400 6.500 C 76.400 6.331,76.040 5.968,75.600 5.693 C 75.160 5.418,74.800 5.331,74.800 5.500 M324.229 5.829 C 323.805 6.138,323.536 6.469,323.630 6.563 C 323.724 6.657,324.148 6.481,324.571 6.171 C 324.995 5.862,325.264 5.531,325.170 5.437 C 325.076 5.343,324.652 5.519,324.229 5.829 M374.800 5.500 C 374.800 5.669,375.160 6.032,375.600 6.307 C 376.040 6.582,376.400 6.669,376.400 6.500 C 376.400 6.331,376.040 5.968,375.600 5.693 C 375.160 5.418,374.800 5.331,374.800 5.500 M19.300 8.998 C 18.557 9.842,18.694 10.073,19.600 9.507 C 20.040 9.232,20.400 8.871,20.400 8.704 C 20.400 8.227,19.849 8.375,19.300 8.998 M79.600 8.704 C 79.600 8.871,79.960 9.232,80.400 9.507 C 81.330 10.088,81.454 9.797,80.629 8.971 C 79.998 8.341,79.600 8.237,79.600 8.704 M319.300 8.998 C 318.557 9.842,318.694 10.073,319.600 9.507 C 320.040 9.232,320.400 8.871,320.400 8.704 C 320.400 8.227,319.849 8.375,319.300 8.998 M379.600 8.704 C 379.600 8.871,379.960 9.232,380.400 9.507 C 381.330 10.088,381.454 9.797,380.629 8.971 C 379.998 8.341,379.600 8.237,379.600 8.704 M16.229 11.429 C 15.805 11.738,15.572 12.105,15.710 12.243 C 15.849 12.382,16.262 12.195,16.629 11.829 C 17.491 10.966,17.225 10.700,16.229 11.429 M82.800 11.025 C 82.800 11.325,83.873 12.400,84.171 12.400 C 84.680 12.400,84.351 11.762,83.600 11.293 C 83.160 11.018,82.800 10.898,82.800 11.025 M316.229 11.429 C 315.805 11.738,315.572 12.105,315.710 12.243 C 315.849 12.382,316.262 12.195,316.629 11.829 C 317.491 10.966,317.225 10.700,316.229 11.429 M382.800 11.025 C 382.800 11.325,383.873 12.400,384.171 12.400 C 384.680 12.400,384.351 11.762,383.600 11.293 C 383.160 11.018,382.800 10.898,382.800 11.025 M11.293 16.400 C 11.018 16.840,10.898 17.200,11.025 17.200 C 11.325 17.200,12.400 16.127,12.400 15.829 C 12.400 15.320,11.762 15.649,11.293 16.400 M87.600 15.829 C 87.600 16.127,88.675 17.200,88.975 17.200 C 89.102 17.200,88.982 16.840,88.707 16.400 C 88.238 15.649,87.600 15.320,87.600 15.829 M311.293 16.400 C 311.018 16.840,310.898 17.200,311.025 17.200 C 311.325 17.200,312.400 16.127,312.400 15.829 C 312.400 15.320,311.762 15.649,311.293 16.400 M387.600 15.829 C 387.600 16.127,388.675 17.200,388.975 17.200 C 389.102 17.200,388.982 16.840,388.707 16.400 C 388.238 15.649,387.600 15.320,387.600 15.829 M8.900 19.398 C 8.331 20.045,8.261 20.400,8.704 20.400 C 8.871 20.400,9.232 20.040,9.507 19.600 C 10.078 18.687,9.651 18.545,8.900 19.398 M90.493 19.600 C 90.962 20.351,91.600 20.680,91.600 20.171 C 91.600 19.873,90.525 18.800,90.225 18.800 C 90.098 18.800,90.218 19.160,90.493 19.600 M308.900 19.398 C 308.331 20.045,308.261 20.400,308.704 20.400 C 308.871 20.400,309.232 20.040,309.507 19.600 C 310.078 18.687,309.651 18.545,308.900 19.398 M390.493 19.600 C 390.962 20.351,391.600 20.680,391.600 20.171 C 391.600 19.873,390.525 18.800,390.225 18.800 C 390.098 18.800,390.218 19.160,390.493 19.600 M5.693 24.400 C 5.418 24.840,5.331 25.200,5.500 25.200 C 5.669 25.200,6.032 24.840,6.307 24.400 C 6.582 23.960,6.669 23.600,6.500 23.600 C 6.331 23.600,5.968 23.960,5.693 24.400 M93.693 24.400 C 93.968 24.840,94.331 25.200,94.500 25.200 C 94.669 25.200,94.582 24.840,94.307 24.400 C 94.032 23.960,93.669 23.600,93.500 23.600 C 93.331 23.600,93.418 23.960,93.693 24.400 M305.693 24.400 C 305.418 24.840,305.331 25.200,305.500 25.200 C 305.669 25.200,306.032 24.840,306.307 24.400 C 306.582 23.960,306.669 23.600,306.500 23.600 C 306.331 23.600,305.968 23.960,305.693 24.400 M393.693 24.400 C 393.968 24.840,394.331 25.200,394.500 25.200 C 394.669 25.200,394.582 24.840,394.307 24.400 C 394.032 23.960,393.669 23.600,393.500 23.600 C 393.331 23.600,393.418 23.960,393.693 24.400 M298.800 50.000 C 298.800 50.440,298.980 50.800,299.200 50.800 C 299.420 50.800,299.600 50.440,299.600 50.000 C 299.600 49.560,299.420 49.200,299.200 49.200 C 298.980 49.200,298.800 49.560,298.800 50.000 M5.693 575.600 C 5.968 576.040,6.331 576.400,6.500 576.400 C 6.669 576.400,6.582 576.040,6.307 575.600 C 6.032 575.160,5.669 574.800,5.500 574.800 C 5.331 574.800,5.418 575.160,5.693 575.600 M93.693 575.600 C 93.418 576.040,93.331 576.400,93.500 576.400 C 93.669 576.400,94.032 576.040,94.307 575.600 C 94.582 575.160,94.669 574.800,94.500 574.800 C 94.331 574.800,93.968 575.160,93.693 575.600 M305.693 575.600 C 305.968 576.040,306.331 576.400,306.500 576.400 C 306.669 576.400,306.582 576.040,306.307 575.600 C 306.032 575.160,305.669 574.800,305.500 574.800 C 305.331 574.800,305.418 575.160,305.693 575.600 M393.693 575.600 C 393.418 576.040,393.331 576.400,393.500 576.400 C 393.669 576.400,394.032 576.040,394.307 575.600 C 394.582 575.160,394.669 574.800,394.500 574.800 C 394.331 574.800,393.968 575.160,393.693 575.600 M8.400 579.829 C 8.400 580.127,9.475 581.200,9.775 581.200 C 9.902 581.200,9.782 580.840,9.507 580.400 C 9.038 579.649,8.400 579.320,8.400 579.829 M90.493 580.400 C 90.218 580.840,90.098 581.200,90.225 581.200 C 90.525 581.200,91.600 580.127,91.600 579.829 C 91.600 579.320,90.962 579.649,90.493 580.400 M308.400 579.829 C 308.400 580.127,309.475 581.200,309.775 581.200 C 309.902 581.200,309.782 580.840,309.507 580.400 C 309.038 579.649,308.400 579.320,308.400 579.829 M390.493 580.400 C 390.218 580.840,390.098 581.200,390.225 581.200 C 390.525 581.200,391.600 580.127,391.600 579.829 C 391.600 579.320,390.962 579.649,390.493 580.400 M11.293 583.600 C 11.762 584.351,12.400 584.680,12.400 584.171 C 12.400 583.873,11.325 582.800,11.025 582.800 C 10.898 582.800,11.018 583.160,11.293 583.600 M88.100 583.398 C 87.531 584.045,87.461 584.400,87.904 584.400 C 88.071 584.400,88.432 584.040,88.707 583.600 C 89.278 582.687,88.851 582.545,88.100 583.398 M311.293 583.600 C 311.762 584.351,312.400 584.680,312.400 584.171 C 312.400 583.873,311.325 582.800,311.025 582.800 C 310.898 582.800,311.018 583.160,311.293 583.600 M388.100 583.398 C 387.531 584.045,387.461 584.400,387.904 584.400 C 388.071 584.400,388.432 584.040,388.707 583.600 C 389.278 582.687,388.851 582.545,388.100 583.398 M15.600 587.904 C 15.600 588.071,15.960 588.432,16.400 588.707 C 17.330 589.288,17.454 588.997,16.629 588.171 C 15.998 587.541,15.600 587.437,15.600 587.904 M83.300 588.198 C 82.557 589.042,82.694 589.273,83.600 588.707 C 84.040 588.432,84.400 588.071,84.400 587.904 C 84.400 587.427,83.849 587.575,83.300 588.198 M315.600 587.904 C 315.600 588.071,315.960 588.432,316.400 588.707 C 317.330 589.288,317.454 588.997,316.629 588.171 C 315.998 587.541,315.600 587.437,315.600 587.904 M383.300 588.198 C 382.557 589.042,382.694 589.273,383.600 588.707 C 384.040 588.432,384.400 588.071,384.400 587.904 C 384.400 587.427,383.849 587.575,383.300 588.198 M18.800 590.225 C 18.800 590.525,19.873 591.600,20.171 591.600 C 20.680 591.600,20.351 590.962,19.600 590.493 C 19.160 590.218,18.800 590.098,18.800 590.225 M80.229 590.629 C 79.805 590.938,79.572 591.305,79.710 591.443 C 79.849 591.582,80.262 591.395,80.629 591.029 C 81.491 590.166,81.225 589.900,80.229 590.629 M318.800 590.225 C 318.800 590.525,319.873 591.600,320.171 591.600 C 320.680 591.600,320.351 590.962,319.600 590.493 C 319.160 590.218,318.800 590.098,318.800 590.225 M380.229 590.629 C 379.805 590.938,379.572 591.305,379.710 591.443 C 379.849 591.582,380.262 591.395,380.629 591.029 C 381.491 590.166,381.225 589.900,380.229 590.629 M23.600 593.500 C 23.600 593.669,23.960 594.032,24.400 594.307 C 24.840 594.582,25.200 594.669,25.200 594.500 C 25.200 594.331,24.840 593.968,24.400 593.693 C 23.960 593.418,23.600 593.331,23.600 593.500 M75.429 593.829 C 75.005 594.138,74.736 594.469,74.830 594.563 C 74.924 594.657,75.348 594.481,75.771 594.171 C 76.195 593.862,76.464 593.531,76.370 593.437 C 76.276 593.343,75.852 593.519,75.429 593.829 M323.600 593.500 C 323.600 593.669,323.960 594.032,324.400 594.307 C 324.840 594.582,325.200 594.669,325.200 594.500 C 325.200 594.331,324.840 593.968,324.400 593.693 C 323.960 593.418,323.600 593.331,323.600 593.500 M375.429 593.829 C 375.005 594.138,374.736 594.469,374.830 594.563 C 374.924 594.657,375.348 594.481,375.771 594.171 C 376.195 593.862,376.464 593.531,376.370 593.437 C 376.276 593.343,375.852 593.519,375.429 593.829 " stroke="none" fill="#488cdc" fill-rule="evenodd"></path></g></svg>