<svg id="svg" version="1.1" xmlns="http://www.w3.org/2000/svg" xmlns:xlink="http://www.w3.org/1999/xlink" width="400" height="400" viewBox="0, 0, 400,400"><g id="svgg"><path id="path0" d="M192.936 0.766 C 192.241 1.148,191.212 1.762,190.650 2.130 C 190.088 2.499,189.394 2.800,189.109 2.800 C 188.823 2.800,188.412 3.205,188.195 3.700 C 187.978 4.195,187.395 4.778,186.900 4.995 C 186.405 5.212,186.000 5.705,186.000 6.091 C 186.000 6.477,185.640 7.018,185.200 7.293 C 184.760 7.568,184.400 8.109,184.400 8.496 C 184.400 8.883,184.220 9.200,184.000 9.200 C 183.780 9.200,183.600 9.841,183.600 10.624 C 183.600 11.471,183.438 11.947,183.200 11.800 C 182.934 11.636,182.800 25.867,182.800 54.190 L 182.800 96.827 181.413 98.213 C 180.651 98.976,179.823 99.600,179.574 99.600 C 179.325 99.600,178.617 100.140,178.000 100.800 C 177.383 101.460,176.663 102.000,176.400 102.000 C 176.137 102.000,175.417 102.540,174.800 103.200 C 174.183 103.860,173.463 104.400,173.200 104.400 C 172.937 104.400,172.217 104.940,171.600 105.600 C 170.983 106.260,170.263 106.800,170.000 106.800 C 169.737 106.800,169.017 107.340,168.400 108.000 C 167.783 108.660,167.063 109.200,166.800 109.200 C 166.537 109.200,165.817 109.740,165.200 110.400 C 164.583 111.060,163.863 111.600,163.600 111.600 C 163.337 111.600,162.617 112.140,162.000 112.800 C 161.383 113.460,160.663 114.000,160.400 114.000 C 160.137 114.000,159.417 114.540,158.800 115.200 C 158.183 115.860,157.463 116.400,157.200 116.400 C 156.937 116.400,156.217 116.940,155.600 117.600 C 154.983 118.260,154.263 118.800,154.000 118.800 C 153.737 118.800,153.017 119.340,152.400 120.000 C 151.783 120.660,151.063 121.200,150.800 121.200 C 150.537 121.200,149.817 121.740,149.200 122.400 C 148.583 123.060,147.863 123.600,147.600 123.600 C 147.337 123.600,146.617 124.140,146.000 124.800 C 145.383 125.460,144.663 126.000,144.400 126.000 C 144.137 126.000,143.417 126.540,142.800 127.200 C 142.183 127.860,141.463 128.400,141.200 128.400 C 140.937 128.400,140.217 128.940,139.600 129.600 C 138.983 130.260,138.263 130.800,138.000 130.800 C 137.737 130.800,137.017 131.340,136.400 132.000 C 135.783 132.660,135.063 133.200,134.800 133.200 C 134.537 133.200,133.817 133.740,133.200 134.400 C 132.583 135.060,131.863 135.600,131.600 135.600 C 131.337 135.600,130.617 136.140,130.000 136.800 C 129.383 137.460,128.663 138.000,128.400 138.000 C 128.137 138.000,127.417 138.540,126.800 139.200 C 126.183 139.860,125.391 140.400,125.040 140.400 C 124.688 140.400,124.400 140.580,124.400 140.800 C 124.400 141.064,109.808 141.200,81.424 141.200 C 53.204 141.200,38.362 141.337,38.200 141.600 C 38.064 141.820,37.689 142.000,37.366 142.000 C 36.368 142.000,33.200 145.473,33.200 146.566 C 33.200 147.109,33.020 147.664,32.800 147.800 C 32.535 147.964,32.400 183.604,32.400 253.424 L 32.400 358.800 100.000 358.800 L 167.600 358.800 167.600 315.224 C 167.600 286.604,167.737 271.562,168.000 271.400 C 168.220 271.264,168.400 270.713,168.400 270.176 C 168.400 269.639,168.580 269.200,168.800 269.200 C 169.020 269.200,169.200 268.840,169.200 268.400 C 169.200 267.960,169.380 267.600,169.600 267.600 C 169.820 267.600,170.000 267.240,170.000 266.800 C 170.000 266.360,170.159 266.000,170.353 266.000 C 170.548 266.000,170.801 265.640,170.916 265.200 C 171.031 264.760,171.412 264.400,171.763 264.400 C 172.113 264.400,172.400 264.175,172.400 263.900 C 172.400 263.267,174.961 261.200,175.745 261.200 C 176.069 261.200,176.393 261.025,176.467 260.812 C 176.540 260.598,176.960 260.355,177.400 260.272 C 177.840 260.188,178.470 260.024,178.800 259.906 C 181.566 258.917,183.816 258.800,200.000 258.800 C 216.184 258.800,218.434 258.917,221.200 259.906 C 221.530 260.024,222.160 260.188,222.600 260.272 C 223.040 260.355,223.460 260.598,223.533 260.812 C 223.607 261.025,223.931 261.200,224.255 261.200 C 225.039 261.200,227.600 263.267,227.600 263.900 C 227.600 264.175,227.887 264.400,228.237 264.400 C 228.588 264.400,228.969 264.760,229.084 265.200 C 229.199 265.640,229.452 266.000,229.647 266.000 C 229.841 266.000,230.000 266.360,230.000 266.800 C 230.000 267.240,230.180 267.600,230.400 267.600 C 230.620 267.600,230.800 267.960,230.800 268.400 C 230.800 268.840,230.980 269.200,231.200 269.200 C 231.420 269.200,231.600 269.639,231.600 270.176 C 231.600 270.713,231.780 271.264,232.000 271.400 C 232.263 271.562,232.400 286.604,232.400 315.224 L 232.400 358.800 300.000 358.800 L 367.600 358.800 367.600 253.424 C 367.600 183.604,367.465 147.964,367.200 147.800 C 366.980 147.664,366.800 147.109,366.800 146.566 C 366.800 145.473,363.632 142.000,362.634 142.000 C 362.311 142.000,361.936 141.820,361.800 141.600 C 361.638 141.337,346.796 141.200,318.576 141.200 C 290.192 141.200,275.600 141.064,275.600 140.800 C 275.600 140.580,275.312 140.400,274.960 140.400 C 274.609 140.400,273.817 139.860,273.200 139.200 C 272.583 138.540,271.863 138.000,271.600 138.000 C 271.337 138.000,270.617 137.460,270.000 136.800 C 269.383 136.140,268.663 135.600,268.400 135.600 C 268.137 135.600,267.417 135.060,266.800 134.400 C 266.183 133.740,265.463 133.200,265.200 133.200 C 264.937 133.200,264.217 132.660,263.600 132.000 C 262.983 131.340,262.263 130.800,262.000 130.800 C 261.737 130.800,261.017 130.260,260.400 129.600 C 259.783 128.940,259.063 128.400,258.800 128.400 C 258.537 128.400,257.817 127.860,257.200 127.200 C 256.583 126.540,255.863 126.000,255.600 126.000 C 255.337 126.000,254.617 125.460,254.000 124.800 C 253.383 124.140,252.663 123.600,252.400 123.600 C 252.137 123.600,251.417 123.060,250.800 122.400 C 250.183 121.740,249.463 121.200,249.200 121.200 C 248.937 121.200,248.217 120.660,247.600 120.000 C 246.983 119.340,246.263 118.800,246.000 118.800 C 245.737 118.800,245.017 118.260,244.400 117.600 C 243.783 116.940,243.063 116.400,242.800 116.400 C 242.537 116.400,241.817 115.860,241.200 115.200 C 240.583 114.540,239.863 114.000,239.600 114.000 C 239.337 114.000,238.617 113.460,238.000 112.800 C 237.383 112.140,236.663 111.600,236.400 111.600 C 236.137 111.600,235.417 111.060,234.800 110.400 C 234.183 109.740,233.463 109.200,233.200 109.200 C 232.937 109.200,232.217 108.660,231.600 108.000 C 230.983 107.340,230.263 106.800,230.000 106.800 C 229.737 106.800,229.017 106.260,228.400 105.600 C 227.783 104.940,227.063 104.400,226.800 104.400 C 226.537 104.400,225.817 103.860,225.200 103.200 C 224.583 102.540,223.863 102.000,223.600 102.000 C 223.337 102.000,222.617 101.460,222.000 100.800 C 221.383 100.140,220.675 99.600,220.426 99.600 C 220.177 99.600,219.349 98.976,218.587 98.213 L 217.200 96.827 217.200 82.213 L 217.200 67.600 254.351 67.600 C 285.207 67.600,291.579 67.508,291.954 67.055 C 292.282 66.660,292.378 59.551,292.303 41.155 L 292.200 15.800 254.700 15.698 L 217.200 15.596 217.200 13.574 C 217.200 12.328,217.047 11.648,216.800 11.800 C 216.562 11.947,216.400 11.471,216.400 10.624 C 216.400 9.841,216.220 9.200,216.000 9.200 C 215.780 9.200,215.600 8.883,215.600 8.496 C 215.600 8.109,215.240 7.568,214.800 7.293 C 214.360 7.018,214.000 6.477,214.000 6.091 C 214.000 5.705,213.595 5.212,213.100 4.995 C 212.605 4.778,212.022 4.195,211.805 3.700 C 211.588 3.205,211.129 2.800,210.785 2.800 C 210.441 2.800,209.989 2.637,209.780 2.437 C 207.235 0.005,196.294 -1.081,192.936 0.766 M206.800 143.200 C 206.800 143.420,207.520 143.600,208.400 143.600 C 209.280 143.600,210.000 143.780,210.000 144.000 C 210.000 144.220,210.360 144.400,210.800 144.400 C 211.240 144.400,211.600 144.580,211.600 144.800 C 211.600 145.020,212.140 145.200,212.800 145.200 C 213.460 145.200,214.000 145.380,214.000 145.600 C 214.000 145.820,214.320 146.000,214.712 146.000 C 215.103 146.000,215.683 146.360,216.000 146.800 C 216.317 147.240,216.857 147.600,217.200 147.600 C 217.543 147.600,218.083 147.960,218.400 148.400 C 218.717 148.840,219.222 149.200,219.522 149.200 C 220.212 149.200,225.990 154.826,225.996 155.504 C 225.998 155.781,226.540 156.572,227.200 157.263 C 227.860 157.954,228.400 158.942,228.400 159.459 C 228.400 159.977,228.580 160.400,228.800 160.400 C 229.020 160.400,229.200 160.760,229.200 161.200 C 229.200 161.640,229.380 162.000,229.600 162.000 C 229.820 162.000,230.000 162.360,230.000 162.800 C 230.000 163.240,230.180 163.600,230.400 163.600 C 230.620 163.600,230.800 164.151,230.800 164.824 C 230.800 165.537,230.967 165.944,231.200 165.800 C 231.444 165.649,231.600 166.263,231.600 167.376 C 231.600 168.379,231.780 169.200,232.000 169.200 C 232.248 169.200,232.400 171.333,232.400 174.800 C 232.400 178.267,232.248 180.400,232.000 180.400 C 231.780 180.400,231.600 181.109,231.600 181.976 C 231.600 182.843,231.420 183.664,231.200 183.800 C 230.980 183.936,230.800 184.476,230.800 185.000 C 230.800 185.524,230.620 186.064,230.400 186.200 C 230.180 186.336,230.000 186.887,230.000 187.424 C 230.000 187.961,229.820 188.400,229.600 188.400 C 229.380 188.400,229.200 188.760,229.200 189.200 C 229.200 189.640,229.020 190.000,228.800 190.000 C 228.580 190.000,228.400 190.320,228.400 190.712 C 228.400 191.103,228.040 191.683,227.600 192.000 C 227.160 192.317,226.798 192.852,226.796 193.188 C 226.793 193.525,225.609 194.970,224.165 196.400 C 222.720 197.830,221.365 199.315,221.155 199.700 C 220.944 200.085,220.617 200.400,220.428 200.400 C 220.239 200.400,219.507 200.940,218.800 201.600 C 218.093 202.260,217.208 202.800,216.833 202.800 C 216.458 202.800,215.764 203.160,215.292 203.600 C 214.820 204.040,214.156 204.400,213.817 204.400 C 213.478 204.400,213.200 204.580,213.200 204.800 C 213.200 205.020,212.851 205.200,212.424 205.200 C 211.997 205.200,211.536 205.380,211.400 205.600 C 211.264 205.820,210.533 206.000,209.776 206.000 C 209.019 206.000,208.400 206.180,208.400 206.400 C 208.400 206.620,207.601 206.800,206.624 206.800 C 205.647 206.800,204.736 206.980,204.600 207.200 C 204.460 207.427,202.470 207.600,200.000 207.600 C 197.530 207.600,195.540 207.427,195.400 207.200 C 195.264 206.980,194.353 206.800,193.376 206.800 C 192.399 206.800,191.600 206.620,191.600 206.400 C 191.600 206.180,190.981 206.000,190.224 206.000 C 189.467 206.000,188.736 205.820,188.600 205.600 C 188.464 205.380,188.003 205.200,187.576 205.200 C 187.149 205.200,186.800 205.020,186.800 204.800 C 186.800 204.580,186.522 204.400,186.183 204.400 C 185.844 204.400,185.180 204.040,184.708 203.600 C 184.236 203.160,183.542 202.800,183.167 202.800 C 182.792 202.800,181.907 202.260,181.200 201.600 C 180.493 200.940,179.761 200.400,179.572 200.400 C 179.383 200.400,179.056 200.085,178.845 199.700 C 178.635 199.315,177.280 197.830,175.835 196.400 C 174.391 194.970,173.207 193.525,173.204 193.188 C 173.202 192.852,172.840 192.317,172.400 192.000 C 171.960 191.683,171.600 191.103,171.600 190.712 C 171.600 190.320,171.420 190.000,171.200 190.000 C 170.980 190.000,170.800 189.640,170.800 189.200 C 170.800 188.760,170.620 188.400,170.400 188.400 C 170.180 188.400,170.000 187.961,170.000 187.424 C 170.000 186.887,169.820 186.336,169.600 186.200 C 169.380 186.064,169.200 185.524,169.200 185.000 C 169.200 184.476,169.020 183.936,168.800 183.800 C 168.580 183.664,168.400 182.843,168.400 181.976 C 168.400 181.109,168.220 180.400,168.000 180.400 C 167.752 180.400,167.600 178.267,167.600 174.800 C 167.600 171.333,167.752 169.200,168.000 169.200 C 168.220 169.200,168.400 168.379,168.400 167.376 C 168.400 166.263,168.556 165.649,168.800 165.800 C 169.033 165.944,169.200 165.537,169.200 164.824 C 169.200 164.151,169.380 163.600,169.600 163.600 C 169.820 163.600,170.000 163.240,170.000 162.800 C 170.000 162.360,170.180 162.000,170.400 162.000 C 170.620 162.000,170.800 161.640,170.800 161.200 C 170.800 160.760,170.980 160.400,171.200 160.400 C 171.420 160.400,171.600 159.977,171.600 159.459 C 171.600 158.942,172.140 157.954,172.800 157.263 C 173.460 156.572,174.002 155.781,174.004 155.504 C 174.010 154.826,179.788 149.200,180.478 149.200 C 180.778 149.200,181.283 148.840,181.600 148.400 C 181.917 147.960,182.457 147.600,182.800 147.600 C 183.143 147.600,183.683 147.240,184.000 146.800 C 184.317 146.360,184.897 146.000,185.288 146.000 C 185.680 146.000,186.000 145.820,186.000 145.600 C 186.000 145.380,186.540 145.200,187.200 145.200 C 187.860 145.200,188.400 145.020,188.400 144.800 C 188.400 144.580,188.760 144.400,189.200 144.400 C 189.640 144.400,190.000 144.220,190.000 144.000 C 190.000 143.780,190.720 143.600,191.600 143.600 C 192.480 143.600,193.200 143.420,193.200 143.200 C 193.200 142.949,195.733 142.800,200.000 142.800 C 204.267 142.800,206.800 142.949,206.800 143.200 M101.344 175.877 C 101.496 176.029,101.980 176.209,102.420 176.276 C 103.415 176.428,106.800 179.761,106.800 180.589 C 106.800 180.925,106.980 181.200,107.200 181.200 C 107.462 181.200,107.600 189.067,107.600 204.000 C 107.600 218.933,107.462 226.800,107.200 226.800 C 106.980 226.800,106.800 227.160,106.800 227.600 C 106.800 228.040,106.620 228.400,106.400 228.400 C 106.180 228.400,106.000 228.683,106.000 229.029 C 106.000 229.715,105.075 230.800,104.491 230.800 C 104.289 230.800,103.798 231.160,103.400 231.600 C 101.996 233.152,79.620 232.682,79.603 231.100 C 79.601 230.935,79.240 230.800,78.800 230.800 C 78.360 230.800,78.000 230.536,78.000 230.214 C 78.000 229.892,77.640 229.435,77.200 229.200 C 76.732 228.950,76.400 228.362,76.400 227.786 C 76.400 227.244,76.220 226.800,76.000 226.800 C 75.738 226.800,75.600 219.067,75.600 204.400 C 75.600 189.733,75.738 182.000,76.000 182.000 C 76.220 182.000,76.400 181.460,76.400 180.800 C 76.400 179.933,76.844 179.156,78.000 178.000 C 79.156 176.844,79.933 176.400,80.800 176.400 C 81.460 176.400,82.000 176.220,82.000 176.000 C 82.000 175.544,100.890 175.424,101.344 175.877 M318.000 176.000 C 318.000 176.220,318.540 176.400,319.200 176.400 C 320.876 176.400,323.600 179.124,323.600 180.800 C 323.600 181.460,323.780 182.000,324.000 182.000 C 324.262 182.000,324.400 189.733,324.400 204.400 C 324.400 219.067,324.262 226.800,324.000 226.800 C 323.780 226.800,323.600 227.244,323.600 227.786 C 323.600 228.362,323.268 228.950,322.800 229.200 C 322.360 229.435,322.000 229.892,322.000 230.214 C 322.000 230.536,321.640 230.800,321.200 230.800 C 320.760 230.800,320.399 230.935,320.397 231.100 C 320.380 232.682,298.004 233.152,296.600 231.600 C 296.202 231.160,295.711 230.800,295.509 230.800 C 294.925 230.800,294.000 229.715,294.000 229.029 C 294.000 228.683,293.820 228.400,293.600 228.400 C 293.380 228.400,293.200 228.040,293.200 227.600 C 293.200 227.160,293.020 226.800,292.800 226.800 C 292.538 226.800,292.400 218.933,292.400 204.000 C 292.400 189.067,292.538 181.200,292.800 181.200 C 293.020 181.200,293.200 180.925,293.200 180.589 C 293.200 179.761,296.585 176.428,297.580 176.276 C 298.020 176.209,298.504 176.029,298.656 175.877 C 299.110 175.424,318.000 175.544,318.000 176.000 M103.400 268.400 C 103.798 268.840,104.289 269.200,104.491 269.200 C 105.075 269.200,106.000 270.285,106.000 270.971 C 106.000 271.317,106.180 271.600,106.400 271.600 C 106.620 271.600,106.800 271.960,106.800 272.400 C 106.800 272.840,106.980 273.200,107.200 273.200 C 107.462 273.200,107.600 281.067,107.600 296.000 C 107.600 310.933,107.462 318.800,107.200 318.800 C 106.980 318.800,106.800 319.075,106.800 319.411 C 106.800 320.239,103.415 323.572,102.420 323.724 C 101.980 323.791,101.496 323.971,101.344 324.123 C 100.890 324.576,82.000 324.456,82.000 324.000 C 82.000 323.780,81.460 323.600,80.800 323.600 C 79.124 323.600,76.400 320.876,76.400 319.200 C 76.400 318.540,76.220 318.000,76.000 318.000 C 75.738 318.000,75.600 310.267,75.600 295.600 C 75.600 280.933,75.738 273.200,76.000 273.200 C 76.220 273.200,76.400 272.795,76.400 272.300 C 76.401 271.204,78.047 269.200,78.947 269.200 C 79.306 269.200,79.600 269.063,79.600 268.895 C 79.600 267.389,102.063 266.922,103.400 268.400 M319.317 268.100 C 319.909 268.375,320.395 268.735,320.397 268.900 C 320.399 269.065,320.760 269.200,321.200 269.200 C 321.640 269.200,322.000 269.464,322.000 269.786 C 322.000 270.108,322.360 270.565,322.800 270.800 C 323.268 271.050,323.600 271.638,323.600 272.214 C 323.600 272.756,323.780 273.200,324.000 273.200 C 324.262 273.200,324.400 280.933,324.400 295.600 C 324.400 310.267,324.262 318.000,324.000 318.000 C 323.780 318.000,323.600 318.540,323.600 319.200 C 323.600 320.067,323.156 320.844,322.000 322.000 C 320.844 323.156,320.067 323.600,319.200 323.600 C 318.540 323.600,318.000 323.780,318.000 324.000 C 318.000 324.456,299.110 324.576,298.656 324.123 C 298.504 323.971,298.020 323.791,297.580 323.724 C 296.585 323.572,293.200 320.239,293.200 319.411 C 293.200 319.075,293.020 318.800,292.800 318.800 C 292.538 318.800,292.400 310.933,292.400 296.000 C 292.400 281.067,292.538 273.200,292.800 273.200 C 293.020 273.200,293.200 272.840,293.200 272.400 C 293.200 271.960,293.380 271.600,293.600 271.600 C 293.820 271.600,294.000 271.317,294.000 270.971 C 294.000 270.285,294.925 269.200,295.509 269.200 C 295.711 269.200,296.202 268.840,296.600 268.400 C 297.496 267.410,317.269 267.149,319.317 268.100 M10.180 374.371 C 9.971 374.575,9.260 374.816,8.600 374.906 C 6.199 375.236,1.200 379.025,1.200 380.516 C 1.200 380.704,0.941 381.116,0.624 381.433 C -0.150 382.208,-0.081 393.640,0.700 393.900 C 0.975 393.992,1.200 394.317,1.200 394.623 C 1.200 395.346,4.654 398.800,5.377 398.800 C 5.683 398.800,6.008 399.025,6.100 399.300 C 6.233 399.699,45.369 399.800,200.000 399.800 C 354.631 399.800,393.767 399.699,393.900 399.300 C 393.992 399.025,394.317 398.800,394.623 398.800 C 395.346 398.800,398.800 395.346,398.800 394.623 C 398.800 394.317,399.025 393.992,399.300 393.900 C 400.081 393.640,400.150 382.208,399.376 381.433 C 399.059 381.116,398.800 380.704,398.800 380.516 C 398.800 379.025,393.801 375.236,391.400 374.906 C 390.740 374.816,390.029 374.575,389.820 374.371 C 389.307 373.870,10.693 373.870,10.180 374.371 " stroke="none" fill="#448cdc" fill-rule="evenodd"></path><path id="path1" d="M187.260 4.242 C 186.962 4.578,186.799 4.932,186.895 5.029 C 186.992 5.126,187.398 4.844,187.798 4.402 C 188.197 3.961,188.361 3.607,188.162 3.615 C 187.963 3.624,187.557 3.905,187.260 4.242 M212.202 4.402 C 212.602 4.844,213.011 5.122,213.112 5.021 C 213.328 4.805,212.188 3.600,211.767 3.600 C 211.607 3.600,211.803 3.961,212.202 4.402 M34.602 143.598 C 34.203 144.039,34.007 144.400,34.167 144.400 C 34.588 144.400,35.728 143.195,35.512 142.979 C 35.411 142.878,35.002 143.156,34.602 143.598 M364.400 142.967 C 364.400 143.388,365.605 144.528,365.821 144.312 C 365.922 144.211,365.644 143.802,365.202 143.402 C 364.761 143.003,364.400 142.807,364.400 142.967 M179.260 149.842 C 178.962 150.178,178.799 150.532,178.895 150.629 C 178.992 150.726,179.398 150.444,179.798 150.002 C 180.197 149.561,180.361 149.207,180.162 149.215 C 179.963 149.224,179.557 149.505,179.260 149.842 M220.202 150.002 C 220.602 150.444,221.011 150.722,221.112 150.621 C 221.328 150.405,220.188 149.200,219.767 149.200 C 219.607 149.200,219.803 149.561,220.202 150.002 M174.660 154.438 C 174.266 154.899,174.047 155.381,174.175 155.509 C 174.415 155.748,175.564 154.438,175.587 153.900 C 175.607 153.434,175.434 153.534,174.660 154.438 M224.413 153.825 C 224.433 154.430,225.569 155.764,225.836 155.497 C 225.970 155.363,225.702 154.847,225.240 154.351 C 224.778 153.855,224.406 153.618,224.413 153.825 M172.093 158.000 C 171.818 158.440,171.731 158.800,171.900 158.800 C 172.069 158.800,172.432 158.440,172.707 158.000 C 172.982 157.560,173.069 157.200,172.900 157.200 C 172.731 157.200,172.368 157.560,172.093 158.000 M227.293 158.000 C 227.568 158.440,227.931 158.800,228.100 158.800 C 228.269 158.800,228.182 158.440,227.907 158.000 C 227.632 157.560,227.269 157.200,227.100 157.200 C 226.931 157.200,227.018 157.560,227.293 158.000 M77.802 177.998 C 77.403 178.439,77.207 178.800,77.367 178.800 C 77.788 178.800,78.928 177.595,78.712 177.379 C 78.611 177.278,78.202 177.556,77.802 177.998 M321.200 177.367 C 321.200 177.788,322.405 178.928,322.621 178.712 C 322.722 178.611,322.444 178.202,322.002 177.802 C 321.561 177.403,321.200 177.207,321.200 177.367 M181.594 201.982 C 182.141 202.402,182.657 202.676,182.742 202.592 C 183.004 202.329,181.686 201.200,181.129 201.209 C 180.838 201.214,181.047 201.561,181.594 201.982 M217.660 201.842 C 216.845 202.763,217.282 202.845,218.406 201.982 C 219.056 201.482,219.192 201.220,218.800 201.224 C 218.470 201.228,217.957 201.505,217.660 201.842 M105.002 229.998 C 104.603 230.439,104.407 230.800,104.567 230.800 C 104.988 230.800,106.128 229.595,105.912 229.379 C 105.811 229.278,105.402 229.556,105.002 229.998 M294.000 229.367 C 294.000 229.788,295.205 230.928,295.421 230.712 C 295.522 230.611,295.244 230.202,294.802 229.802 C 294.361 229.403,294.000 229.207,294.000 229.367 M181.400 259.200 C 180.691 259.505,180.725 259.547,181.700 259.572 C 182.305 259.587,182.800 259.420,182.800 259.200 C 182.800 258.731,182.493 258.731,181.400 259.200 M217.200 259.200 C 217.200 259.420,217.695 259.587,218.300 259.572 C 219.275 259.547,219.309 259.505,218.600 259.200 C 217.507 258.731,217.200 258.731,217.200 259.200 M77.323 270.297 C 76.409 271.425,76.375 272.104,77.281 271.146 C 78.359 270.005,78.886 269.200,78.549 269.208 C 78.357 269.212,77.805 269.702,77.323 270.297 M105.002 270.002 C 105.402 270.444,105.811 270.722,105.912 270.621 C 106.128 270.405,104.988 269.200,104.567 269.200 C 104.407 269.200,104.603 269.561,105.002 270.002 M294.460 269.842 C 294.162 270.178,293.999 270.532,294.095 270.629 C 294.192 270.726,294.598 270.444,294.998 270.002 C 295.397 269.561,295.561 269.207,295.362 269.215 C 295.163 269.224,294.757 269.505,294.460 269.842 M77.802 322.002 C 78.202 322.444,78.611 322.722,78.712 322.621 C 78.928 322.405,77.788 321.200,77.367 321.200 C 77.207 321.200,77.403 321.561,77.802 322.002 M321.660 321.842 C 321.362 322.178,321.199 322.532,321.295 322.629 C 321.392 322.726,321.798 322.444,322.198 322.002 C 322.597 321.561,322.761 321.207,322.562 321.215 C 322.363 321.224,321.957 321.505,321.660 321.842 M2.664 377.929 C 2.299 378.333,2.000 378.818,2.000 379.007 C 2.000 379.196,2.378 378.945,2.840 378.449 C 3.302 377.953,3.601 377.468,3.504 377.371 C 3.408 377.274,3.030 377.525,2.664 377.929 M396.400 377.355 C 396.400 377.508,396.760 378.020,397.200 378.492 C 397.640 378.964,398.000 379.165,398.000 378.937 C 398.000 378.710,397.640 378.198,397.200 377.800 C 396.760 377.402,396.400 377.201,396.400 377.355 " stroke="none" fill="#488cdc" fill-rule="evenodd"></path><path id="path2" d="M187.260 4.242 C 186.962 4.578,186.799 4.932,186.895 5.029 C 186.992 5.126,187.398 4.844,187.798 4.402 C 188.197 3.961,188.361 3.607,188.162 3.615 C 187.963 3.624,187.557 3.905,187.260 4.242 M212.202 4.402 C 212.602 4.844,213.011 5.122,213.112 5.021 C 213.328 4.805,212.188 3.600,211.767 3.600 C 211.607 3.600,211.803 3.961,212.202 4.402 M34.602 143.598 C 34.203 144.039,34.007 144.400,34.167 144.400 C 34.588 144.400,35.728 143.195,35.512 142.979 C 35.411 142.878,35.002 143.156,34.602 143.598 M364.400 142.967 C 364.400 143.388,365.605 144.528,365.821 144.312 C 365.922 144.211,365.644 143.802,365.202 143.402 C 364.761 143.003,364.400 142.807,364.400 142.967 M179.260 149.842 C 178.962 150.178,178.799 150.532,178.895 150.629 C 178.992 150.726,179.398 150.444,179.798 150.002 C 180.197 149.561,180.361 149.207,180.162 149.215 C 179.963 149.224,179.557 149.505,179.260 149.842 M220.202 150.002 C 220.602 150.444,221.011 150.722,221.112 150.621 C 221.328 150.405,220.188 149.200,219.767 149.200 C 219.607 149.200,219.803 149.561,220.202 150.002 M174.660 154.438 C 174.266 154.899,174.047 155.381,174.175 155.509 C 174.415 155.748,175.564 154.438,175.587 153.900 C 175.607 153.434,175.434 153.534,174.660 154.438 M224.413 153.825 C 224.433 154.430,225.569 155.764,225.836 155.497 C 225.970 155.363,225.702 154.847,225.240 154.351 C 224.778 153.855,224.406 153.618,224.413 153.825 M172.093 158.000 C 171.818 158.440,171.731 158.800,171.900 158.800 C 172.069 158.800,172.432 158.440,172.707 158.000 C 172.982 157.560,173.069 157.200,172.900 157.200 C 172.731 157.200,172.368 157.560,172.093 158.000 M227.293 158.000 C 227.568 158.440,227.931 158.800,228.100 158.800 C 228.269 158.800,228.182 158.440,227.907 158.000 C 227.632 157.560,227.269 157.200,227.100 157.200 C 226.931 157.200,227.018 157.560,227.293 158.000 M77.802 177.998 C 77.403 178.439,77.207 178.800,77.367 178.800 C 77.788 178.800,78.928 177.595,78.712 177.379 C 78.611 177.278,78.202 177.556,77.802 177.998 M321.200 177.367 C 321.200 177.788,322.405 178.928,322.621 178.712 C 322.722 178.611,322.444 178.202,322.002 177.802 C 321.561 177.403,321.200 177.207,321.200 177.367 M181.594 201.982 C 182.141 202.402,182.657 202.676,182.742 202.592 C 183.004 202.329,181.686 201.200,181.129 201.209 C 180.838 201.214,181.047 201.561,181.594 201.982 M217.660 201.842 C 216.845 202.763,217.282 202.845,218.406 201.982 C 219.056 201.482,219.192 201.220,218.800 201.224 C 218.470 201.228,217.957 201.505,217.660 201.842 M105.002 229.998 C 104.603 230.439,104.407 230.800,104.567 230.800 C 104.988 230.800,106.128 229.595,105.912 229.379 C 105.811 229.278,105.402 229.556,105.002 229.998 M294.000 229.367 C 294.000 229.788,295.205 230.928,295.421 230.712 C 295.522 230.611,295.244 230.202,294.802 229.802 C 294.361 229.403,294.000 229.207,294.000 229.367 M181.400 259.200 C 180.691 259.505,180.725 259.547,181.700 259.572 C 182.305 259.587,182.800 259.420,182.800 259.200 C 182.800 258.731,182.493 258.731,181.400 259.200 M217.200 259.200 C 217.200 259.420,217.695 259.587,218.300 259.572 C 219.275 259.547,219.309 259.505,218.600 259.200 C 217.507 258.731,217.200 258.731,217.200 259.200 M77.323 270.297 C 76.409 271.425,76.375 272.104,77.281 271.146 C 78.359 270.005,78.886 269.200,78.549 269.208 C 78.357 269.212,77.805 269.702,77.323 270.297 M105.002 270.002 C 105.402 270.444,105.811 270.722,105.912 270.621 C 106.128 270.405,104.988 269.200,104.567 269.200 C 104.407 269.200,104.603 269.561,105.002 270.002 M294.460 269.842 C 294.162 270.178,293.999 270.532,294.095 270.629 C 294.192 270.726,294.598 270.444,294.998 270.002 C 295.397 269.561,295.561 269.207,295.362 269.215 C 295.163 269.224,294.757 269.505,294.460 269.842 M77.802 322.002 C 78.202 322.444,78.611 322.722,78.712 322.621 C 78.928 322.405,77.788 321.200,77.367 321.200 C 77.207 321.200,77.403 321.561,77.802 322.002 M321.660 321.842 C 321.362 322.178,321.199 322.532,321.295 322.629 C 321.392 322.726,321.798 322.444,322.198 322.002 C 322.597 321.561,322.761 321.207,322.562 321.215 C 322.363 321.224,321.957 321.505,321.660 321.842 M2.664 377.929 C 2.299 378.333,2.000 378.818,2.000 379.007 C 2.000 379.196,2.378 378.945,2.840 378.449 C 3.302 377.953,3.601 377.468,3.504 377.371 C 3.408 377.274,3.030 377.525,2.664 377.929 M396.400 377.355 C 396.400 377.508,396.760 378.020,397.200 378.492 C 397.640 378.964,398.000 379.165,398.000 378.937 C 398.000 378.710,397.640 378.198,397.200 377.800 C 396.760 377.402,396.400 377.201,396.400 377.355 " stroke="none" fill="#488cdc" fill-rule="evenodd"></path><path id="path3" d="M187.260 4.242 C 186.962 4.578,186.799 4.932,186.895 5.029 C 186.992 5.126,187.398 4.844,187.798 4.402 C 188.197 3.961,188.361 3.607,188.162 3.615 C 187.963 3.624,187.557 3.905,187.260 4.242 M212.202 4.402 C 212.602 4.844,213.011 5.122,213.112 5.021 C 213.328 4.805,212.188 3.600,211.767 3.600 C 211.607 3.600,211.803 3.961,212.202 4.402 M34.602 143.598 C 34.203 144.039,34.007 144.400,34.167 144.400 C 34.588 144.400,35.728 143.195,35.512 142.979 C 35.411 142.878,35.002 143.156,34.602 143.598 M364.400 142.967 C 364.400 143.388,365.605 144.528,365.821 144.312 C 365.922 144.211,365.644 143.802,365.202 143.402 C 364.761 143.003,364.400 142.807,364.400 142.967 M179.260 149.842 C 178.962 150.178,178.799 150.532,178.895 150.629 C 178.992 150.726,179.398 150.444,179.798 150.002 C 180.197 149.561,180.361 149.207,180.162 149.215 C 179.963 149.224,179.557 149.505,179.260 149.842 M220.202 150.002 C 220.602 150.444,221.011 150.722,221.112 150.621 C 221.328 150.405,220.188 149.200,219.767 149.200 C 219.607 149.200,219.803 149.561,220.202 150.002 M174.660 154.438 C 174.266 154.899,174.047 155.381,174.175 155.509 C 174.415 155.748,175.564 154.438,175.587 153.900 C 175.607 153.434,175.434 153.534,174.660 154.438 M224.413 153.825 C 224.433 154.430,225.569 155.764,225.836 155.497 C 225.970 155.363,225.702 154.847,225.240 154.351 C 224.778 153.855,224.406 153.618,224.413 153.825 M172.093 158.000 C 171.818 158.440,171.731 158.800,171.900 158.800 C 172.069 158.800,172.432 158.440,172.707 158.000 C 172.982 157.560,173.069 157.200,172.900 157.200 C 172.731 157.200,172.368 157.560,172.093 158.000 M227.293 158.000 C 227.568 158.440,227.931 158.800,228.100 158.800 C 228.269 158.800,228.182 158.440,227.907 158.000 C 227.632 157.560,227.269 157.200,227.100 157.200 C 226.931 157.200,227.018 157.560,227.293 158.000 M77.802 177.998 C 77.403 178.439,77.207 178.800,77.367 178.800 C 77.788 178.800,78.928 177.595,78.712 177.379 C 78.611 177.278,78.202 177.556,77.802 177.998 M321.200 177.367 C 321.200 177.788,322.405 178.928,322.621 178.712 C 322.722 178.611,322.444 178.202,322.002 177.802 C 321.561 177.403,321.200 177.207,321.200 177.367 M181.594 201.982 C 182.141 202.402,182.657 202.676,182.742 202.592 C 183.004 202.329,181.686 201.200,181.129 201.209 C 180.838 201.214,181.047 201.561,181.594 201.982 M217.660 201.842 C 216.845 202.763,217.282 202.845,218.406 201.982 C 219.056 201.482,219.192 201.220,218.800 201.224 C 218.470 201.228,217.957 201.505,217.660 201.842 M105.002 229.998 C 104.603 230.439,104.407 230.800,104.567 230.800 C 104.988 230.800,106.128 229.595,105.912 229.379 C 105.811 229.278,105.402 229.556,105.002 229.998 M294.000 229.367 C 294.000 229.788,295.205 230.928,295.421 230.712 C 295.522 230.611,295.244 230.202,294.802 229.802 C 294.361 229.403,294.000 229.207,294.000 229.367 M181.400 259.200 C 180.691 259.505,180.725 259.547,181.700 259.572 C 182.305 259.587,182.800 259.420,182.800 259.200 C 182.800 258.731,182.493 258.731,181.400 259.200 M217.200 259.200 C 217.200 259.420,217.695 259.587,218.300 259.572 C 219.275 259.547,219.309 259.505,218.600 259.200 C 217.507 258.731,217.200 258.731,217.200 259.200 M77.323 270.297 C 76.409 271.425,76.375 272.104,77.281 271.146 C 78.359 270.005,78.886 269.200,78.549 269.208 C 78.357 269.212,77.805 269.702,77.323 270.297 M105.002 270.002 C 105.402 270.444,105.811 270.722,105.912 270.621 C 106.128 270.405,104.988 269.200,104.567 269.200 C 104.407 269.200,104.603 269.561,105.002 270.002 M294.460 269.842 C 294.162 270.178,293.999 270.532,294.095 270.629 C 294.192 270.726,294.598 270.444,294.998 270.002 C 295.397 269.561,295.561 269.207,295.362 269.215 C 295.163 269.224,294.757 269.505,294.460 269.842 M77.802 322.002 C 78.202 322.444,78.611 322.722,78.712 322.621 C 78.928 322.405,77.788 321.200,77.367 321.200 C 77.207 321.200,77.403 321.561,77.802 322.002 M321.660 321.842 C 321.362 322.178,321.199 322.532,321.295 322.629 C 321.392 322.726,321.798 322.444,322.198 322.002 C 322.597 321.561,322.761 321.207,322.562 321.215 C 322.363 321.224,321.957 321.505,321.660 321.842 M2.664 377.929 C 2.299 378.333,2.000 378.818,2.000 379.007 C 2.000 379.196,2.378 378.945,2.840 378.449 C 3.302 377.953,3.601 377.468,3.504 377.371 C 3.408 377.274,3.030 377.525,2.664 377.929 M396.400 377.355 C 396.400 377.508,396.760 378.020,397.200 378.492 C 397.640 378.964,398.000 379.165,398.000 378.937 C 398.000 378.710,397.640 378.198,397.200 377.800 C 396.760 377.402,396.400 377.201,396.400 377.355 " stroke="none" fill="#488cdc" fill-rule="evenodd"></path><path id="path4" d="M187.260 4.242 C 186.962 4.578,186.799 4.932,186.895 5.029 C 186.992 5.126,187.398 4.844,187.798 4.402 C 188.197 3.961,188.361 3.607,188.162 3.615 C 187.963 3.624,187.557 3.905,187.260 4.242 M212.202 4.402 C 212.602 4.844,213.011 5.122,213.112 5.021 C 213.328 4.805,212.188 3.600,211.767 3.600 C 211.607 3.600,211.803 3.961,212.202 4.402 M34.602 143.598 C 34.203 144.039,34.007 144.400,34.167 144.400 C 34.588 144.400,35.728 143.195,35.512 142.979 C 35.411 142.878,35.002 143.156,34.602 143.598 M364.400 142.967 C 364.400 143.388,365.605 144.528,365.821 144.312 C 365.922 144.211,365.644 143.802,365.202 143.402 C 364.761 143.003,364.400 142.807,364.400 142.967 M179.260 149.842 C 178.962 150.178,178.799 150.532,178.895 150.629 C 178.992 150.726,179.398 150.444,179.798 150.002 C 180.197 149.561,180.361 149.207,180.162 149.215 C 179.963 149.224,179.557 149.505,179.260 149.842 M220.202 150.002 C 220.602 150.444,221.011 150.722,221.112 150.621 C 221.328 150.405,220.188 149.200,219.767 149.200 C 219.607 149.200,219.803 149.561,220.202 150.002 M174.660 154.438 C 174.266 154.899,174.047 155.381,174.175 155.509 C 174.415 155.748,175.564 154.438,175.587 153.900 C 175.607 153.434,175.434 153.534,174.660 154.438 M224.413 153.825 C 224.433 154.430,225.569 155.764,225.836 155.497 C 225.970 155.363,225.702 154.847,225.240 154.351 C 224.778 153.855,224.406 153.618,224.413 153.825 M172.093 158.000 C 171.818 158.440,171.731 158.800,171.900 158.800 C 172.069 158.800,172.432 158.440,172.707 158.000 C 172.982 157.560,173.069 157.200,172.900 157.200 C 172.731 157.200,172.368 157.560,172.093 158.000 M227.293 158.000 C 227.568 158.440,227.931 158.800,228.100 158.800 C 228.269 158.800,228.182 158.440,227.907 158.000 C 227.632 157.560,227.269 157.200,227.100 157.200 C 226.931 157.200,227.018 157.560,227.293 158.000 M77.802 177.998 C 77.403 178.439,77.207 178.800,77.367 178.800 C 77.788 178.800,78.928 177.595,78.712 177.379 C 78.611 177.278,78.202 177.556,77.802 177.998 M321.200 177.367 C 321.200 177.788,322.405 178.928,322.621 178.712 C 322.722 178.611,322.444 178.202,322.002 177.802 C 321.561 177.403,321.200 177.207,321.200 177.367 M181.594 201.982 C 182.141 202.402,182.657 202.676,182.742 202.592 C 183.004 202.329,181.686 201.200,181.129 201.209 C 180.838 201.214,181.047 201.561,181.594 201.982 M217.660 201.842 C 216.845 202.763,217.282 202.845,218.406 201.982 C 219.056 201.482,219.192 201.220,218.800 201.224 C 218.470 201.228,217.957 201.505,217.660 201.842 M105.002 229.998 C 104.603 230.439,104.407 230.800,104.567 230.800 C 104.988 230.800,106.128 229.595,105.912 229.379 C 105.811 229.278,105.402 229.556,105.002 229.998 M294.000 229.367 C 294.000 229.788,295.205 230.928,295.421 230.712 C 295.522 230.611,295.244 230.202,294.802 229.802 C 294.361 229.403,294.000 229.207,294.000 229.367 M181.400 259.200 C 180.691 259.505,180.725 259.547,181.700 259.572 C 182.305 259.587,182.800 259.420,182.800 259.200 C 182.800 258.731,182.493 258.731,181.400 259.200 M217.200 259.200 C 217.200 259.420,217.695 259.587,218.300 259.572 C 219.275 259.547,219.309 259.505,218.600 259.200 C 217.507 258.731,217.200 258.731,217.200 259.200 M77.323 270.297 C 76.409 271.425,76.375 272.104,77.281 271.146 C 78.359 270.005,78.886 269.200,78.549 269.208 C 78.357 269.212,77.805 269.702,77.323 270.297 M105.002 270.002 C 105.402 270.444,105.811 270.722,105.912 270.621 C 106.128 270.405,104.988 269.200,104.567 269.200 C 104.407 269.200,104.603 269.561,105.002 270.002 M294.460 269.842 C 294.162 270.178,293.999 270.532,294.095 270.629 C 294.192 270.726,294.598 270.444,294.998 270.002 C 295.397 269.561,295.561 269.207,295.362 269.215 C 295.163 269.224,294.757 269.505,294.460 269.842 M77.802 322.002 C 78.202 322.444,78.611 322.722,78.712 322.621 C 78.928 322.405,77.788 321.200,77.367 321.200 C 77.207 321.200,77.403 321.561,77.802 322.002 M321.660 321.842 C 321.362 322.178,321.199 322.532,321.295 322.629 C 321.392 322.726,321.798 322.444,322.198 322.002 C 322.597 321.561,322.761 321.207,322.562 321.215 C 322.363 321.224,321.957 321.505,321.660 321.842 M2.664 377.929 C 2.299 378.333,2.000 378.818,2.000 379.007 C 2.000 379.196,2.378 378.945,2.840 378.449 C 3.302 377.953,3.601 377.468,3.504 377.371 C 3.408 377.274,3.030 377.525,2.664 377.929 M396.400 377.355 C 396.400 377.508,396.760 378.020,397.200 378.492 C 397.640 378.964,398.000 379.165,398.000 378.937 C 398.000 378.710,397.640 378.198,397.200 377.800 C 396.760 377.402,396.400 377.201,396.400 377.355 " stroke="none" fill="#488cdc" fill-rule="evenodd"></path></g></svg>